<svg width="33" height="18" viewBox="0 0 33 18" fill="none" xmlns="http://www.w3.org/2000/svg">
<path fill-rule="evenodd" clip-rule="evenodd" d="M0 1C0 0.447715 0.343595 0 0.767442 0H32.2326C32.6564 0 33 0.447715 33 1C33 1.55228 32.6564 2 32.2326 2H0.767442C0.343595 2 0 1.55228 0 1Z" fill="white"/>
<path fill-rule="evenodd" clip-rule="evenodd" d="M0 9C0 8.44772 0.343595 8 0.767442 8H32.2326C32.6564 8 33 8.44772 33 9C33 9.55228 32.6564 10 32.2326 10H0.767442C0.343595 10 0 9.55228 0 9Z" fill="white"/>
<path fill-rule="evenodd" clip-rule="evenodd" d="M0 17C0 16.4477 0.343595 16 0.767442 16H32.2326C32.6564 16 33 16.4477 33 17C33 17.5523 32.6564 18 32.2326 18H0.767442C0.343595 18 0 17.5523 0 17Z" fill="white"/>
</svg>
