<svg width="65" height="64" viewBox="0 0 65 64" fill="none" xmlns="http://www.w3.org/2000/svg">
<mask id="mask0_401_1618" style="mask-type:alpha" maskUnits="userSpaceOnUse" x="0" y="0" width="65" height="64">
<circle cx="32.5" cy="32" r="32" fill="black"/>
</mask>
<g mask="url(#mask0_401_1618)">
<circle cx="32.5" cy="32" r="32" fill="white"/>
</g>
<g clip-path="url(#clip0_401_1618)">
<path fill-rule="evenodd" clip-rule="evenodd" d="M26.5222 19.9907C27.5691 19.9907 28.5924 20.3012 29.4628 20.8828C30.3333 21.4644 31.0117 22.291 31.4123 23.2582C31.8129 24.2254 31.9177 25.2896 31.7134 26.3164C31.5092 27.3431 31.0051 28.2862 30.2648 29.0265C29.5246 29.7667 28.5814 30.2708 27.5547 30.475C26.5279 30.6792 25.4637 30.5743 24.4965 30.1737C23.5294 29.773 22.7027 29.0946 22.1212 28.2241C21.5396 27.3537 21.2292 26.3303 21.2292 25.2834C21.2305 23.8801 21.7885 22.5345 22.7809 21.5422C23.7732 20.5499 25.1188 19.9919 26.5222 19.9907ZM26.5222 22.456C25.9629 22.456 25.4163 22.6219 24.9513 22.9327C24.4863 23.2434 24.1239 23.6851 23.9099 24.2018C23.6959 24.7185 23.64 25.2871 23.7491 25.8356C23.8583 26.3841 24.1277 26.8879 24.5231 27.2833C24.9186 27.6787 25.4225 27.948 25.971 28.0571C26.5196 28.1661 27.0881 28.1101 27.6048 27.896C28.1214 27.682 28.563 27.3195 28.8737 26.8545C29.1844 26.3894 29.3502 25.8427 29.3501 25.2834C29.3501 24.9121 29.277 24.5444 29.1349 24.2013C28.9927 23.8582 28.7844 23.5465 28.5218 23.284C28.2592 23.0214 27.9475 22.8132 27.6044 22.6711C27.2613 22.529 26.8936 22.4559 26.5222 22.456Z" fill="#0073D2"/>
<path fill-rule="evenodd" clip-rule="evenodd" d="M35.144 30.5934H32.6787V25.2834C32.6799 23.88 33.2379 22.5344 34.2303 21.5421C35.2226 20.5498 36.5683 19.9918 37.9717 19.9907H39.104V22.456H37.971C37.5995 22.4555 37.2317 22.5283 36.8884 22.6703C36.5452 22.8122 36.2334 23.0205 35.9708 23.2831C35.7082 23.5458 35.4999 23.8577 35.3581 24.2009C35.2162 24.5442 35.1435 24.912 35.144 25.2834V30.5934Z" fill="#0073D2"/>
<path fill-rule="evenodd" clip-rule="evenodd" d="M44.6796 19.9907C46.0831 19.9919 47.4287 20.5499 48.4211 21.5423C49.4134 22.5346 49.9715 23.8803 49.9726 25.2837V30.5934H47.5073V29.7556C46.8136 30.1942 46.0274 30.4655 45.2109 30.5479C44.3943 30.6304 43.5697 30.5218 42.8023 30.2307C42.035 29.9397 41.3458 29.4741 40.7893 28.8708C40.2328 28.2676 39.8243 27.5431 39.596 26.7548C39.3677 25.9665 39.3259 25.1358 39.4739 24.3286C39.6219 23.5213 39.9556 22.7595 40.4487 22.1034C40.9417 21.4473 41.5807 20.9149 42.3149 20.5482C43.0492 20.1815 43.8587 19.9907 44.6794 19.9907H44.6796ZM44.6796 22.456C44.1204 22.456 43.5737 22.6219 43.1087 22.9327C42.6438 23.2434 42.2814 23.685 42.0674 24.2017C41.8534 24.7184 41.7974 25.287 41.9066 25.8355C42.0157 26.384 42.285 26.8878 42.6805 27.2832C43.076 27.6787 43.5798 27.948 44.1283 28.057C44.6768 28.1661 45.2454 28.1101 45.7621 27.8961C46.2787 27.6821 46.7203 27.3196 47.031 26.8546C47.3417 26.3896 47.5076 25.8429 47.5076 25.2837C47.5081 24.9122 47.4354 24.5442 47.2935 24.2008C47.1515 23.8575 46.9433 23.5455 46.6805 23.2829C46.4178 23.0202 46.1059 22.8119 45.7625 22.67C45.4191 22.5281 45.0512 22.4554 44.6796 22.456Z" fill="#0073D2"/>
<path d="M54.0735 17H51.6082V30.5934H54.0735V17Z" fill="#0073D2"/>
<path fill-rule="evenodd" clip-rule="evenodd" d="M20.6638 27.1827C19.9264 28.4609 18.7925 29.464 17.4339 30.0402C16.0754 30.6164 14.5661 30.7343 13.1345 30.3761C11.703 30.0178 10.4271 29.2029 9.5001 28.0547C8.57309 26.9065 8.04542 25.4875 7.99695 24.0126C7.94849 22.5377 8.38187 21.0871 9.23149 19.8805C10.0811 18.674 11.3007 17.777 12.7057 17.3256C14.1106 16.8741 15.6244 16.8926 17.0179 17.3784C18.4113 17.8642 19.6086 18.7907 20.4284 20.0177L18.387 21.3857C17.8649 20.6043 17.1025 20.0143 16.2151 19.7049C15.3278 19.3954 14.3637 19.3836 13.469 19.671C12.5743 19.9584 11.7975 20.5294 11.2564 21.2977C10.7152 22.066 10.439 22.9897 10.4697 23.929C10.5004 24.8682 10.8362 25.7719 11.4263 26.5033C12.0165 27.2346 12.8288 27.7538 13.7404 27.9822C14.652 28.2107 15.6131 28.1359 16.4784 27.7693C17.3437 27.4026 18.066 26.7641 18.536 25.9503L20.6638 27.1827Z" fill="#0073D2"/>
<path fill-rule="evenodd" clip-rule="evenodd" d="M9.83744 41.315C10.2009 41.315 10.5561 41.2073 10.8583 41.0054C11.1604 40.8035 11.3959 40.5165 11.535 40.1807C11.6741 39.845 11.7105 39.4755 11.6396 39.1191C11.5687 38.7627 11.3937 38.4353 11.1367 38.1783C10.8797 37.9213 10.5523 37.7463 10.1959 37.6754C9.83948 37.6045 9.47003 37.6409 9.13428 37.78C8.79854 37.9191 8.51156 38.1546 8.30966 38.4568C8.10776 38.7589 8 39.1142 8 39.4776C8.00095 39.9646 8.19484 40.4314 8.53922 40.7758C8.8836 41.1202 9.35041 41.3141 9.83744 41.315Z" fill="#0073D2"/>
<path fill-rule="evenodd" clip-rule="evenodd" d="M19.2927 41.3361C19.852 41.3361 20.3987 41.1703 20.8637 40.8595C21.3288 40.5488 21.6912 40.1071 21.9052 39.5904C22.1192 39.0737 22.1752 38.5051 22.066 37.9566C21.9569 37.4081 21.6875 36.9042 21.292 36.5088C20.8965 36.1134 20.3926 35.8441 19.8441 35.735C19.2955 35.626 18.727 35.682 18.2103 35.8961C17.6936 36.1102 17.252 36.4727 16.9414 36.9378C16.6307 37.4029 16.4649 37.9496 16.465 38.5089C16.4642 38.8805 16.5367 39.2485 16.6786 39.592C16.8204 39.9354 17.0286 40.2474 17.2914 40.5101C17.5541 40.7728 17.8662 40.981 18.2096 41.1228C18.5531 41.2645 18.9212 41.337 19.2927 41.3361ZM16.4653 46.9953H14V38.5077C14 37.1039 14.5577 35.7577 15.5503 34.765C16.5429 33.7724 17.8892 33.2148 19.293 33.2148C20.6967 33.2148 22.043 33.7724 23.0357 34.765C24.0283 35.7577 24.5859 37.1039 24.5859 38.5077C24.5859 42.6871 19.9539 45.1922 16.4655 42.9828L16.4653 46.9953ZM33.4405 33.2152V43.8177H35.9058V33.2148L33.4405 33.2152ZM54.4606 43.8177H55.9374V41.3524H54.4609C53.7109 41.3524 52.9917 41.0545 52.4613 40.5242C51.931 39.994 51.633 39.2747 51.633 38.5248V37.402H54.4609V34.9368H51.633V32.1201H49.1679V38.5248C49.1681 39.9284 49.7258 41.2746 50.7183 42.2671C51.7109 43.2597 53.057 43.8175 54.4606 43.8177ZM27.9567 38.5077C27.9562 38.1362 28.029 37.7681 28.171 37.4248C28.3129 37.0814 28.5213 36.7695 28.7841 36.5068C29.0469 36.2441 29.3589 36.0359 29.7023 35.8941C30.0458 35.7522 30.4138 35.6796 30.7854 35.6803H31.9184V33.215H30.7854C29.382 33.2161 28.0363 33.774 27.0439 34.7664C26.0516 35.7587 25.4935 37.1043 25.4924 38.5077V43.8177H27.9577L27.9567 38.5077ZM37.3618 38.5077V43.8177H39.8271V38.508C39.8271 37.758 40.125 37.0387 40.6554 36.5084C41.1857 35.9781 41.9049 35.6802 42.6549 35.6802C43.4049 35.6802 44.1242 35.9781 44.6545 36.5084C45.1848 37.0387 45.4827 37.758 45.4827 38.508V43.8177H47.9478V38.5082C47.9478 37.1044 47.3901 35.7581 46.3975 34.7655C45.4049 33.7729 44.0586 33.2152 42.6548 33.2152C41.251 33.2152 39.9047 33.7729 38.9121 34.7655C37.9195 35.7581 37.3618 37.1044 37.3618 38.5082V38.5077Z" fill="#0073D2"/>
</g>
<defs>
<clipPath id="clip0_401_1618">
<rect width="48" height="30" fill="white" transform="translate(8 17)"/>
</clipPath>
</defs>
</svg>
