<svg width="230" height="100" viewBox="0 0 230 100" fill="none" xmlns="http://www.w3.org/2000/svg">
<path d="M92.9746 49.9056H100.261V52.2561H96.7924V68.8623H92.9746V49.9056Z" fill="#9395A0"/>
<path d="M104.575 61.7413L105.227 52.2561H105.447L106.105 61.7413H104.575ZM100.342 68.8623H104.086L104.444 63.8273H106.24L106.595 68.8623H110.339L108.345 49.9056H102.336L100.342 68.8623Z" fill="#9395A0"/>
<path d="M115.807 62.2284V65.7969C115.807 66.2841 116.19 66.4189 116.411 66.4189C116.765 66.4189 117.01 66.1221 117.01 65.7969V61.3863C117.01 60.7916 116.902 60.1424 115.48 60.1424H113.926V58.0564H115.536C116.627 58.0564 117.01 57.8153 117.01 56.6505V52.878C117.01 52.5552 116.765 52.2548 116.411 52.2548C116.19 52.2548 115.807 52.3908 115.807 52.878V55.9705H111.988V53.2885C111.988 51.9617 112.149 49.9042 114.829 49.9042H117.996C120.67 49.9042 120.834 51.9617 120.834 53.2885V56.3241C120.834 58.3829 119.386 58.9504 118.244 58.8972V59.0864C120.805 59.0345 120.834 60.982 120.834 61.6571V65.4791C120.834 66.8009 120.67 68.8622 117.996 68.8622H114.829C112.149 68.8622 111.988 66.8009 111.988 65.4791V62.2284H115.807Z" fill="#9395A0"/>
<path d="M123.346 49.9056H132.187V68.8623H128.361V52.2561H127.162V68.8623H123.346V49.9056Z" fill="#9395A0"/>
<path d="M138.526 60.3316V52.256H139.02C139.428 52.256 139.731 52.6109 139.731 53.2056V59.3832C139.731 59.9829 139.428 60.3316 139.02 60.3316H138.526ZM134.707 68.8622H138.526V62.4163H140.71C143.383 62.4163 143.55 60.3613 143.55 59.0345V53.2897C143.55 51.963 143.383 49.9054 140.71 49.9054H134.707V68.8622Z" fill="#9395A0"/>
<path d="M151.084 65.7969C151.084 66.1221 150.841 66.4176 150.484 66.4176C150.264 66.4176 149.884 66.2828 149.884 65.7969V52.878C149.884 52.3908 150.264 52.2548 150.484 52.2548C150.841 52.2548 151.084 52.5552 151.084 52.878V65.7969ZM146.062 65.4791C146.062 66.8009 146.226 68.8622 148.901 68.8622H152.065C154.743 68.8622 154.91 66.8009 154.91 65.4791V53.2885C154.91 51.9617 154.743 49.9042 152.065 49.9042H148.901C146.226 49.9042 146.062 51.9617 146.062 53.2885V65.4791Z" fill="#9395A0"/>
<path d="M167.361 49.9054H172.329V68.8622H168.507V56.9733H168.369L166.403 68.8622H163.343L161.379 56.9733H161.242V68.8622H157.418V49.9054H162.39L164.874 63.2299L167.361 49.9054Z" fill="#9395A0"/>
<path d="M88.0192 23.9777C86.8488 18.8919 83.9147 14.7633 83.5084 14.0844C82.8727 15.0353 80.5345 18.6854 79.3416 22.735C78.0441 27.2482 77.8547 31.2507 78.3034 35.1964C78.7446 39.1433 80.426 43.1916 80.426 43.1916C81.3197 45.3209 82.6596 47.5997 83.5296 48.7188C84.8072 47.0705 87.7388 42.1604 88.6549 35.7479C89.1609 32.1806 89.1871 29.0597 88.0192 23.9777ZM83.5084 47.4526C82.9363 46.3793 82.0401 44.3292 81.9591 41.1687C81.9342 38.1071 83.1681 35.4932 83.5296 34.9454C83.8537 35.4932 84.9131 37.7696 85.039 40.8917C85.1263 43.9508 84.1042 46.3546 83.5084 47.4526ZM87.6789 32.6035C87.6328 34.5411 87.4022 36.5875 87.1018 37.8128C87.2065 35.7046 86.9548 32.7308 86.4624 30.4112C85.9776 28.0903 84.5953 24.2076 83.4885 22.4172C82.4677 24.1273 81.2125 27.4782 80.5532 30.3901C79.895 33.2996 79.8751 36.8187 79.8751 37.8771C79.7006 36.9844 79.2606 33.8115 79.384 30.6201C79.4887 27.9901 80.1069 25.2846 80.4472 24.0407C81.7447 19.8873 83.2118 17.2288 83.4885 16.8072C83.7627 17.2288 85.6136 20.4994 86.5734 23.9368C87.5269 27.3718 87.7188 30.6634 87.6789 32.6035Z" fill="#9395A0"/>
<path d="M85.4921 49.9001H76.5939V55.8266C76.6064 55.8167 76.6064 55.8105 76.6188 55.7994C78.7153 53.7209 82.1106 53.7209 84.2083 55.7994C86.3073 57.8804 86.3073 61.2499 84.2083 63.3322C84.2021 63.3421 84.1946 63.3458 84.1846 63.3557L84.1809 63.3581C84.1734 63.3705 84.1634 63.3767 84.1497 63.3866C82.0607 65.4478 79.3298 66.4766 76.5939 66.4766C73.8505 66.4766 71.1084 65.4404 69.0119 63.3631C65.3225 59.7018 64.885 54.0362 67.6945 49.9001C68.0759 49.3424 68.5171 48.8095 69.0119 48.3161C71.1084 46.2413 73.8505 45.2026 76.5939 45.2026V30.9594C66.0467 30.9594 57.5 39.4381 57.5 49.9001C57.5 60.3633 66.0467 68.8457 76.5939 68.8457C82.0931 68.8457 87.0514 66.5359 90.5314 62.8487V49.9001H85.4921Z" fill="#9395A0"/>
</svg>
