<svg width="230" height="100" viewBox="0 0 230 100" fill="none" xmlns="http://www.w3.org/2000/svg">
<path d="M153.867 60.6964C148.886 60.7303 144.172 60.7694 142.858 60.6525C140.198 60.4239 138.421 58.6977 138.215 56.1573C138.074 54.4912 138.074 53.1102 138.207 51.7959C138.449 49.3234 140.535 46.9666 142.859 46.8556C143.691 46.8106 145.919 46.8157 149.951 46.8315L161.692 46.8556V42.0247C161.692 42.0247 152.341 42.014 149.53 42.0014C145.755 41.9844 143.856 41.9821 142.654 42.0247C140.008 42.1242 137.791 43.059 136.066 44.7962C134.434 46.4354 133.461 49.0446 133.316 51.6861C133.235 53.1102 133.207 54.9726 133.316 56.0795C133.588 58.9189 134.514 61.1481 136.066 62.7096C137.727 64.3864 140.254 65.4479 142.656 65.4819C144.627 65.5063 161.692 65.4819 161.692 65.4819V60.6521C161.692 60.6521 156.507 60.6731 153.867 60.6964ZM100.871 42.2814V47.1076H112.453V65.3962H117.342V47.1076H128.927V42.2814H100.871ZM95.7927 51.4089C95.7569 48.8104 94.8341 46.5796 93.0412 44.7772C91.173 42.8915 88.32 42.1072 86.4542 42.0085C84.8316 41.9181 78.4365 41.9465 76.9346 42.0085C74.8196 42.0978 73.2774 42.7233 72.5056 43.2951C72.4976 43.3003 72.4896 43.2979 72.4896 43.286V34.5068H67.5977V65.4827H72.4813C72.4813 65.4827 72.3861 52.8033 72.4948 51.4231C72.6891 48.968 74.5664 47.0404 76.958 46.8323C78.878 46.6692 84.6374 46.7138 86.443 46.8363C88.9247 47.0057 90.7558 48.9297 90.9003 51.5199C90.9477 52.4736 90.8975 65.4823 90.8975 65.4823H95.7923C95.7927 65.4819 95.8054 52.5241 95.7927 51.4089Z" fill="#9395A0"/>
</svg>
