<svg width="230" height="100" viewBox="0 0 230 100" fill="none" xmlns="http://www.w3.org/2000/svg">
<path d="M130.41 44.5142C129.974 44.5142 129.634 44.138 129.682 43.7079C129.69 43.635 129.692 43.6117 129.692 43.6112C129.811 41.8028 129.186 40.7422 127.139 40.7422L120.805 40.7491L119.112 48.4048L128.179 48.4052C128.646 48.4052 128.993 48.8336 128.892 49.2853L128.008 53.233C127.935 53.5642 127.639 53.7991 127.298 53.7991H117.908C117.908 53.7991 116.865 58.4895 116.827 58.692C116.478 60.206 117.521 60.9923 118.221 61.33C118.256 61.3468 118.292 61.3637 118.328 61.3797C118.628 61.5127 118.793 61.8361 118.721 62.1548L118.239 64.3126C118.165 64.6416 117.871 64.8765 117.531 64.8765H106.489C106.026 64.8765 105.681 64.4512 105.781 64.0025L110.591 42.3844C111.082 40.4771 109.956 39.7011 109.148 39.3954C109.121 39.3854 109.093 39.3763 109.066 39.366C108.705 39.2386 108.496 38.8642 108.58 38.4929L109.004 36.5898C109.085 36.2288 109.408 35.9715 109.781 35.9715H134.33C134.796 35.9715 135.143 36.3998 135.042 36.8511L133.454 43.9493C133.38 44.2792 133.085 44.5141 132.744 44.5141L130.41 44.5142ZM93.4869 36.586C93.5666 36.2271 93.8874 35.9715 94.2578 35.9715H106.263C106.73 35.9715 107.078 36.4011 106.976 36.8546L106.569 38.6846C106.499 38.9951 106.24 39.2162 105.922 39.2503C105.866 39.256 105.832 39.2594 105.831 39.2594C104.927 39.379 103.293 39.6709 101.955 40.7099L91.9752 48.9429C91.9743 48.9438 91.9743 48.9456 91.9748 48.9464L99.6545 59.2569C101.143 61.1552 101.877 61.4994 103.374 61.5223C103.865 61.5312 104.217 61.9882 104.111 62.4632L103.692 64.317C103.618 64.6443 103.326 64.8766 102.988 64.8766H97.0075C90.3847 64.8775 88.5565 61.996 83.0397 51.9907C83.0384 51.989 83.0355 51.9894 83.035 51.9912L81.4245 59.2898C81.1798 60.4241 82.1375 61.0248 82.8391 61.3076C82.8696 61.3202 82.9001 61.3314 82.9284 61.3426C83.2635 61.473 83.4537 61.8263 83.3754 62.1743L82.8975 64.3144C82.8235 64.6426 82.5301 64.8766 82.191 64.8766H68.3324C67.8449 64.8766 67.4836 64.4293 67.5885 63.9573L67.9964 62.1285C68.07 61.7965 68.349 61.5482 68.6889 61.5115C68.7028 61.5093 68.7164 61.5081 68.7294 61.5068C69.9996 61.3613 71.332 60.565 72.1542 56.667L75.297 42.3936C75.7013 40.4923 74.7429 39.769 73.9162 39.4478C73.9093 39.4447 73.8605 39.4279 73.7848 39.4024C73.4061 39.2742 73.1841 38.8834 73.2712 38.4956L73.6982 36.5887C73.7783 36.2281 74.1012 35.9716 74.473 35.9716H87.6547C88.1156 35.9716 88.4586 36.3948 88.3589 36.8417L87.9389 38.7232C87.878 38.9982 87.6721 39.2198 87.4009 39.3031C87.3682 39.313 87.3343 39.3234 87.3003 39.3338C86.6835 39.5328 85.7076 40.0346 85.4081 41.2532L83.6522 49.1965C83.6518 49.1995 83.6549 49.2011 83.6569 49.1996L93.8813 40.7696C94.4946 40.2678 94.3383 39.5972 93.6349 39.3286C93.6349 39.3286 93.6332 39.3282 93.6307 39.3273C93.2311 39.2072 92.9921 38.8018 93.0827 38.3972L93.4869 36.586ZM162.362 36.5704C162.8 36.6895 163.066 37.1304 162.967 37.5713L161.412 44.5145C161.338 44.8457 161.042 45.0811 160.7 45.0811H158.487C158.07 45.0811 157.737 44.733 157.759 44.3193C157.765 44.2291 157.765 44.1924 157.765 44.1902C157.871 41.9266 156.43 40.2339 153.168 40.2343C147.746 40.2352 143.803 44.6488 143.286 50.4473C142.752 56.4344 146.97 59.9136 152.81 59.9127C155.805 59.9123 158.175 59.3393 159.504 58.9217C160.032 58.7563 160.546 59.2097 160.442 59.7495L159.756 63.337C159.698 63.6432 159.475 63.8924 159.175 63.9869C157.979 64.3648 154.618 65.253 149.475 65.2539C137.255 65.2561 132.297 58.283 133.065 51.1749C133.747 44.8449 137.969 35.5206 154.615 35.5176C157.803 35.5171 160.353 36.0237 162.362 36.5704" fill="#9395A0"/>
</svg>
