<svg width="326" height="117" viewBox="0 0 326 117" fill="none" xmlns="http://www.w3.org/2000/svg">
<circle cx="11.5" cy="105.5" r="11.5" fill="#323232"/>
<path d="M39 105.5C39 102.462 41.4624 100 44.5 100H320.5C323.538 100 326 102.462 326 105.5C326 108.538 323.538 111 320.5 111H44.5C41.4624 111 39 108.538 39 105.5Z" fill="#323232"/>
<circle cx="11.5" cy="58.5" r="11.5" fill="#323232"/>
<path d="M39 58.5C39 55.4624 41.4624 53 44.5 53H320.5C323.538 53 326 55.4624 326 58.5C326 61.5376 323.538 64 320.5 64H44.5C41.4624 64 39 61.5376 39 58.5Z" fill="#323232"/>
<circle cx="11.5" cy="11.5" r="11.5" fill="#6228FF"/>
<circle cx="11.5" cy="11.5" r="4.5" fill="white"/>
<path d="M39 11.5C39 8.46243 41.4624 6 44.5 6H320.5C323.538 6 326 8.46243 326 11.5C326 14.5376 323.538 17 320.5 17H44.5C41.4624 17 39 14.5376 39 11.5Z" fill="#6228FF"/>
</svg>
