<svg width="108" height="44" viewBox="0 0 108 44" fill="none" xmlns="http://www.w3.org/2000/svg">
<g clip-path="url(#clip0_229_1291)">
<rect y="7" width="29.3333" height="29.3333" rx="8.38095" fill="white"/>
<path fill-rule="evenodd" clip-rule="evenodd" d="M12.5709 17.9038C12.5709 15.7392 14.3257 13.9844 16.4903 13.9844H18.1582V16.778H16.4903C15.8686 16.778 15.3646 17.282 15.3646 17.9038C15.3646 19.3851 14.7205 20.7367 13.6778 21.6669C14.7205 22.5971 15.3646 23.9487 15.3646 25.4301C15.3646 26.0518 15.8686 26.5558 16.4903 26.5558H18.1582V29.3495H16.4903C14.3257 29.3495 12.5709 27.5947 12.5709 25.4301C12.5709 24.3377 11.7853 23.4036 10.709 23.2164L9.77734 23.0544V20.2795L10.709 20.1174C11.7853 19.9303 12.5709 18.9962 12.5709 17.9038Z" fill="#161616"/>
</g>
<path d="M38.5684 24.1439V24.3754C38.5684 25.9284 39.2725 27.1679 40.6808 28.094C42.0988 29.02 44.0521 29.483 46.5408 29.483C49.0391 29.483 50.9635 29.02 52.314 28.094C53.6644 27.1583 54.3396 25.9574 54.3396 24.4912C54.3396 23.2082 53.8139 22.1857 52.7625 21.4237C51.7111 20.652 50.134 20.107 48.0311 19.7887C45.9379 19.4704 44.5827 19.1858 43.9653 18.935C43.348 18.6842 43.0393 18.3322 43.0393 17.8788C43.0393 17.4158 43.3287 17.054 43.9074 16.7936C44.4862 16.5235 45.4026 16.3885 46.6566 16.3885C47.9009 16.3885 48.8366 16.5621 49.4636 16.9094C50.0906 17.2566 50.4041 17.7534 50.4041 18.3997V18.7325H54.1371V18.3707C54.1371 16.9721 53.4619 15.7904 52.1114 14.8258C50.761 13.8612 48.9427 13.3789 46.6566 13.3789C44.3705 13.3789 42.5715 13.8274 41.2596 14.7245C39.9477 15.612 39.2918 16.7454 39.2918 18.1248C39.2918 19.3112 39.7886 20.2999 40.7821 21.0909C41.7757 21.8723 43.3239 22.4221 45.4267 22.7404C47.5199 23.0587 48.8945 23.3336 49.5504 23.5651C50.216 23.7966 50.5487 24.1873 50.5487 24.7371C50.5487 25.287 50.2111 25.7162 49.5359 26.0249C48.8607 26.3335 47.8623 26.4879 46.5408 26.4879C45.229 26.4879 44.1968 26.3384 43.4444 26.0393C42.692 25.7403 42.3158 25.2387 42.3158 24.5346V24.1439H38.5684Z" fill="white"/>
<path d="M57.219 29.0489H60.9809V19.6006C61.4633 18.7903 62.0999 18.1248 62.8909 17.6039C63.6818 17.083 64.5596 16.8225 65.5242 16.8225C66.6625 16.8225 67.5788 17.136 68.2734 17.763C68.9679 18.3804 69.3248 19.4125 69.3441 20.8594V29.0489H73.0916V19.6006C73.5642 18.7903 74.2201 18.1248 75.0594 17.6039C75.8986 17.083 76.8053 16.8225 77.7795 16.8225C78.9081 16.8225 79.7956 17.136 80.4418 17.763C81.0978 18.3804 81.4354 19.4077 81.4547 20.8449V29.0489H85.2166V20.9173C85.2166 18.2646 84.6331 16.3692 83.4659 15.2309C82.3084 14.0927 80.8229 13.5236 79.0094 13.5236C77.6975 13.5236 76.4291 13.7792 75.204 14.2905C73.979 14.7921 73.0144 15.5444 72.3102 16.5476H72.2958C71.852 15.5637 71.1431 14.8162 70.1688 14.3049C69.1946 13.784 68.0853 13.5236 66.8409 13.5236C65.6738 13.5236 64.5693 13.7262 63.5275 14.1313C62.4954 14.5364 61.6272 15.1924 60.9231 16.0991H60.8941L60.7639 13.8274H57.219V29.0489Z" fill="white"/>
<path d="M88.7037 32.97C89.5622 33.7031 90.6811 34.2819 92.0605 34.7063C93.4495 35.1404 94.9061 35.3574 96.4302 35.3574C98.9189 35.3574 101.027 34.7256 102.753 33.462C104.48 32.208 105.343 30.3994 105.343 28.0361V13.8274H101.798L101.668 15.8242H101.639C101.176 15.1586 100.419 14.6136 99.3674 14.1892C98.316 13.7551 97.144 13.5381 95.8514 13.5381C93.4978 13.5381 91.583 14.2567 90.1072 15.694C88.641 17.1312 87.9079 18.9688 87.9079 21.2067V21.6697C87.9079 23.8979 88.641 25.7355 90.1072 27.1824C91.5734 28.6197 93.4833 29.3383 95.8369 29.3383C97.1392 29.3383 98.287 29.155 99.2806 28.7885C100.274 28.4219 101.046 27.9059 101.596 27.2403V28.0505C101.596 29.3528 101.084 30.3559 100.062 31.0601C99.0394 31.7739 97.7854 32.1308 96.2999 32.1308C95.0556 32.1308 93.9126 31.9475 92.8708 31.581C91.8387 31.2241 91.0525 30.7948 90.5123 30.2932L88.7037 32.97ZM91.7567 21.6986V21.1633C91.7567 19.9189 92.1907 18.882 93.0589 18.0524C93.9367 17.2229 95.2292 16.8081 96.9366 16.8081C98.0169 16.8081 98.9719 17.0251 99.8015 17.4592C100.631 17.8836 101.229 18.501 101.596 19.3112V23.5651C101.248 24.2307 100.655 24.8143 99.8159 25.3159C98.9864 25.8175 98.0266 26.0683 96.9366 26.0683C95.2389 26.0683 93.9511 25.6535 93.0733 24.8239C92.1956 23.9847 91.7567 22.943 91.7567 21.6986Z" fill="white"/>
<defs>
<clipPath id="clip0_229_1291">
<rect width="29.3333" height="29.3333" fill="white" transform="translate(0 7)"/>
</clipPath>
</defs>
</svg>
