<svg width="21" height="20" viewBox="0 0 21 20" fill="none" xmlns="http://www.w3.org/2000/svg">
<g id="at-sign" clip-path="url(#clip0_737_14173)">
<path id="Icon" d="M13.5002 6.66696V10.8336C13.5002 11.4967 13.7636 12.1326 14.2324 12.6014C14.7012 13.0702 15.3371 13.3336 16.0002 13.3336C16.6632 13.3336 17.2991 13.0702 17.7679 12.6014C18.2368 12.1326 18.5002 11.4967 18.5002 10.8336V10.0003C18.5001 8.11949 17.8637 6.29403 16.6946 4.82074C15.5254 3.34745 13.8923 2.31298 12.0607 1.88554C10.2291 1.4581 8.30678 1.66283 6.60629 2.46644C4.90581 3.27004 3.52717 4.62526 2.69455 6.31173C1.86194 7.99821 1.62431 9.91674 2.02031 11.7554C2.41631 13.594 3.42265 15.2447 4.8757 16.4389C6.32874 17.633 8.14303 18.3006 10.0236 18.3329C11.9041 18.3653 13.7403 17.7605 15.2335 16.617M13.5002 10.0003C13.5002 11.8412 12.0078 13.3336 10.1668 13.3336C8.32589 13.3336 6.83351 11.8412 6.83351 10.0003C6.83351 8.15935 8.32589 6.66696 10.1668 6.66696C12.0078 6.66696 13.5002 8.15935 13.5002 10.0003Z" stroke="#9395A0" stroke-width="2" stroke-linecap="round" stroke-linejoin="round"/>
</g>
<defs>
<clipPath id="clip0_737_14173">
<rect width="20" height="20" fill="white" transform="translate(0.166748)"/>
</clipPath>
</defs>
</svg>
