<svg width="49" height="48" viewBox="0 0 49 48" fill="none" xmlns="http://www.w3.org/2000/svg">
<path d="M14.5 17H24.5M14.5 24H30.5M14.5 36V40.671C14.5 41.7367 14.5 42.2696 14.7185 42.5432C14.9084 42.7812 15.1965 42.9197 15.5011 42.9194C15.8513 42.919 16.2673 42.5861 17.0995 41.9204L21.8704 38.1037C22.845 37.324 23.3323 36.9341 23.875 36.6569C24.3564 36.411 24.8689 36.2312 25.3984 36.1225C25.9953 36 26.6194 36 27.8675 36H32.9C36.2603 36 37.9405 36 39.2239 35.346C40.3529 34.7708 41.2708 33.8529 41.846 32.7239C42.5 31.4405 42.5 29.7603 42.5 26.4V15.6C42.5 12.2397 42.5 10.5595 41.846 9.27606C41.2708 8.14708 40.3529 7.2292 39.2239 6.65396C37.9405 6 36.2603 6 32.9 6H16.1C12.7397 6 11.0595 6 9.77606 6.65396C8.64708 7.2292 7.7292 8.14708 7.15396 9.27606C6.5 10.5595 6.5 12.2397 6.5 15.6V28C6.5 29.8599 6.5 30.7899 6.70445 31.5529C7.25925 33.6235 8.87653 35.2408 10.9471 35.7956C11.7101 36 12.6401 36 14.5 36Z" stroke="#9395A0" stroke-width="3" stroke-linecap="round" stroke-linejoin="round"/>
</svg>
