<svg width="297" height="320" viewBox="0 0 297 320" fill="none" xmlns="http://www.w3.org/2000/svg">
<path d="M3 36C3 16.1178 19.1178 0 39 0H261C280.882 0 297 16.1178 297 36V320C297 320 280.882 320 261 320H39C19.1178 320 39 320 3 320V36Z" fill="#323232"/>
<path fill-rule="evenodd" clip-rule="evenodd" d="M261 251H170C162.268 251 156 257.268 156 265V284C156 291.732 162.268 298 170 298H261C268.732 298 275 291.732 275 284V265C275 257.268 268.732 251 261 251ZM170 249C161.163 249 154 256.163 154 265V284C154 292.837 161.163 300 170 300H261C269.837 300 277 292.837 277 284V265C277 256.163 269.837 249 261 249H170Z" fill="#1A1A1A"/>
<path d="M23 36C23 27.1634 30.1634 20 39 20H75C83.8366 20 91 27.1634 91 36V55C91 63.8366 83.8366 71 75 71H39C30.1634 71 23 63.8366 23 55V36Z" fill="#1A1A1A"/>
<path d="M99 36C99 27.1634 106.163 20 115 20H261C269.837 20 277 27.1634 277 36V55C277 63.8366 269.837 71 261 71H115C106.163 71 99 63.8366 99 55V36Z" fill="#1A1A1A"/>
<path d="M23 111.5C23 108.462 25.4624 106 28.5 106H271.5C274.538 106 277 108.462 277 111.5C277 114.538 274.538 117 271.5 117H28.5C25.4624 117 23 114.538 23 111.5Z" fill="#1A1A1A"/>
<path d="M23 149.5C23 146.462 25.4624 144 28.5 144H220.5C223.538 144 226 146.462 226 149.5C226 152.538 223.538 155 220.5 155H28.5C25.4624 155 23 152.538 23 149.5Z" fill="#1A1A1A"/>
<path d="M23 130.5C23 127.462 25.4624 125 28.5 125H243.5C246.538 125 249 127.462 249 130.5C249 133.538 246.538 136 243.5 136H28.5C25.4624 136 23 133.538 23 130.5Z" fill="#1A1A1A"/>
<rect x="23" y="163" width="182" height="11" rx="5.5" fill="#1A1A1A"/>
<path d="M23 187.5C23 184.462 25.4624 182 28.5 182H177.5C180.538 182 183 184.462 183 187.5C183 190.538 180.538 193 177.5 193H28.5C25.4624 193 23 190.538 23 187.5Z" fill="#1A1A1A"/>
<path d="M23 206.5C23 203.462 25.4624 201 28.5 201H156.5C159.538 201 162 203.462 162 206.5C162 209.538 159.538 212 156.5 212H28.5C25.4624 212 23 209.538 23 206.5Z" fill="#1A1A1A"/>
<g filter="url(#filter0_d_229_2068)">
<path d="M23 265C23 256.163 30.1634 249 39 249H130C138.837 249 146 256.163 146 265V284C146 292.837 138.837 300 130 300H39C30.1634 300 23 292.837 23 284V265Z" fill="#6228FF"/>
</g>
<path d="M40.06 50.64L37 42H38.98L40.96 47.85L42.85 42H44.47L46.36 47.85L48.34 42H50.32L47.26 50.64H45.55L43.66 44.88L41.77 50.64H40.06Z" fill="#9395A0"/>
<path d="M53.7358 50.64L50.6758 42H52.6558L54.6358 47.85L56.5258 42H58.1458L60.0358 47.85L62.0158 42H63.9958L60.9358 50.64H59.2258L57.3358 44.88L55.4458 50.64H53.7358Z" fill="#9395A0"/>
<path d="M67.4116 50.64L64.3516 42H66.3316L68.3116 47.85L70.2016 42H71.8216L73.7116 47.85L75.6916 42H77.6716L74.6116 50.64H72.9016L71.0116 44.88L69.1216 50.64H67.4116Z" fill="#9395A0"/>
<defs>
<filter id="filter0_d_229_2068" x="0" y="230" width="169" height="97" filterUnits="userSpaceOnUse" color-interpolation-filters="sRGB">
<feFlood flood-opacity="0" result="BackgroundImageFix"/>
<feColorMatrix in="SourceAlpha" type="matrix" values="0 0 0 0 0 0 0 0 0 0 0 0 0 0 0 0 0 0 127 0" result="hardAlpha"/>
<feOffset dy="4"/>
<feGaussianBlur stdDeviation="11.5"/>
<feComposite in2="hardAlpha" operator="out"/>
<feColorMatrix type="matrix" values="0 0 0 0 1 0 0 0 0 1 0 0 0 0 1 0 0 0 0.4 0"/>
<feBlend mode="normal" in2="BackgroundImageFix" result="effect1_dropShadow_229_2068"/>
<feBlend mode="normal" in="SourceGraphic" in2="effect1_dropShadow_229_2068" result="shape"/>
</filter>
</defs>
</svg>
