<svg width="20" height="20" viewBox="0 0 20 20" fill="none" xmlns="http://www.w3.org/2000/svg">
<g id="phone">
<path id="Icon" d="M9.35553 10.7193C8.35422 9.71801 7.56356 8.58581 6.98356 7.37779C6.93367 7.27389 6.90873 7.22193 6.88957 7.15619C6.82146 6.92256 6.87038 6.63568 7.01206 6.43782C7.05192 6.38214 7.09955 6.33451 7.19482 6.23925C7.48615 5.94791 7.63182 5.80225 7.72706 5.65576C8.08622 5.10335 8.08622 4.3912 7.72706 3.8388C7.63182 3.69231 7.48615 3.54665 7.19481 3.25531L7.03242 3.09291C6.58955 2.65005 6.36812 2.42861 6.1303 2.30832C5.65734 2.0691 5.09878 2.0691 4.62581 2.30833C4.388 2.42861 4.16656 2.65005 3.72369 3.09292L3.59233 3.22428C3.15098 3.66563 2.9303 3.88631 2.76176 4.18633C2.57475 4.51925 2.44028 5.03633 2.44141 5.41818C2.44244 5.7623 2.50919 5.99749 2.6427 6.46786C3.36017 8.99569 4.7139 11.381 6.70388 13.371C8.69387 15.361 11.0792 16.7147 13.607 17.4322C14.0774 17.5657 14.3126 17.6324 14.6567 17.6334C15.0385 17.6346 15.5556 17.5001 15.8885 17.3131C16.1886 17.1446 16.4092 16.9239 16.8506 16.4825L16.9819 16.3512C17.4248 15.9083 17.6462 15.6869 17.7665 15.449C18.0058 14.9761 18.0058 14.4175 17.7665 13.9446C17.6462 13.7067 17.4248 13.4853 16.9819 13.0424L16.8196 12.88C16.5282 12.5887 16.3825 12.443 16.2361 12.3478C15.6837 11.9886 14.9715 11.9886 14.4191 12.3478C14.2726 12.443 14.1269 12.5887 13.8356 12.88C13.7403 12.9753 13.6927 13.0229 13.637 13.0628C13.4392 13.2045 13.1523 13.2534 12.9187 13.1853C12.8529 13.1661 12.801 13.1412 12.6971 13.0913C11.4891 12.5113 10.3568 11.7206 9.35553 10.7193Z" stroke="#9395A0" stroke-width="2" stroke-linecap="round" stroke-linejoin="round"/>
</g>
</svg>
