<svg width="294" height="320" viewBox="0 0 294 320" fill="none" xmlns="http://www.w3.org/2000/svg">
<path d="M0 36C0 16.1178 16.1178 0 36 0H258C277.882 0 294 16.1178 294 36V320C294 320 277.882 320 258 320H36C16.1178 320 36 320 0 320V36Z" fill="#323232"/>
<path fill-rule="evenodd" clip-rule="evenodd" d="M258 251H167C159.268 251 153 257.268 153 265V284C153 291.732 159.268 298 167 298H258C265.732 298 272 291.732 272 284V265C272 257.268 265.732 251 258 251ZM167 249C158.163 249 151 256.163 151 265V284C151 292.837 158.163 300 167 300H258C266.837 300 274 292.837 274 284V265C274 256.163 266.837 249 258 249H167Z" fill="#1A1A1A"/>
<path d="M20 36C20 27.1634 27.1634 20 36 20H72C80.8366 20 88 27.1634 88 36V55C88 63.8366 80.8366 71 72 71H36C27.1634 71 20 63.8366 20 55V36Z" fill="#1A1A1A"/>
<path d="M96 36C96 27.1634 103.163 20 112 20H258C266.837 20 274 27.1634 274 36V55C274 63.8366 266.837 71 258 71H112C103.163 71 96 63.8366 96 55V36Z" fill="#1A1A1A"/>
<path d="M20 111.5C20 108.462 22.4624 106 25.5 106H268.5C271.538 106 274 108.462 274 111.5C274 114.538 271.538 117 268.5 117H25.5C22.4624 117 20 114.538 20 111.5Z" fill="#1A1A1A"/>
<path d="M20 149.5C20 146.462 22.4624 144 25.5 144H217.5C220.538 144 223 146.462 223 149.5C223 152.538 220.538 155 217.5 155H25.5C22.4624 155 20 152.538 20 149.5Z" fill="#1A1A1A"/>
<path d="M20 130.5C20 127.462 22.4624 125 25.5 125H240.5C243.538 125 246 127.462 246 130.5C246 133.538 243.538 136 240.5 136H25.5C22.4624 136 20 133.538 20 130.5Z" fill="#1A1A1A"/>
<rect x="20" y="163" width="182" height="11" rx="5.5" fill="#1A1A1A"/>
<path d="M20 187.5C20 184.462 22.4624 182 25.5 182H174.5C177.538 182 180 184.462 180 187.5C180 190.538 177.538 193 174.5 193H25.5C22.4624 193 20 190.538 20 187.5Z" fill="#1A1A1A"/>
<path d="M20 206.5C20 203.462 22.4624 201 25.5 201H153.5C156.538 201 159 203.462 159 206.5C159 209.538 156.538 212 153.5 212H25.5C22.4624 212 20 209.538 20 206.5Z" fill="#1A1A1A"/>
<path d="M20 265C20 256.163 27.1634 249 36 249H127C135.837 249 143 256.163 143 265V284C143 292.837 135.837 300 127 300H36C27.1634 300 20 292.837 20 284V265Z" fill="#6228FF"/>
<path d="M37.06 50.64L34 42H35.98L37.96 47.85L39.85 42H41.47L43.36 47.85L45.34 42H47.32L44.26 50.64H42.55L40.66 44.88L38.77 50.64H37.06Z" fill="#9395A0"/>
<path d="M50.7358 50.64L47.6758 42H49.6558L51.6358 47.85L53.5258 42H55.1458L57.0358 47.85L59.0158 42H60.9958L57.9358 50.64H56.2258L54.3358 44.88L52.4458 50.64H50.7358Z" fill="#9395A0"/>
<path d="M64.4116 50.64L61.3516 42H63.3316L65.3116 47.85L67.2016 42H68.8216L70.7116 47.85L72.6916 42H74.6716L71.6116 50.64H69.9016L68.0116 44.88L66.1216 50.64H64.4116Z" fill="#9395A0"/>
</svg>
