<svg width="422" height="179" viewBox="0 0 422 179" fill="none" xmlns="http://www.w3.org/2000/svg">
<g clip-path="url(#clip0_0_3)">
<path fill-rule="evenodd" clip-rule="evenodd" d="M210.5 666C370.386 666 500 536.386 500 376.5C500 216.614 370.386 87 210.5 87C50.6136 87 -79 216.614 -79 376.5C-79 536.386 50.6136 666 210.5 666ZM210.5 675C375.357 675 509 541.357 509 376.5C509 211.643 375.357 78 210.5 78C45.643 78 -88 211.643 -88 376.5C-88 541.357 45.643 675 210.5 675Z" fill="#2F2F2F" fill-opacity="0.2"/>
<path fill-rule="evenodd" clip-rule="evenodd" d="M210.5 78C170.71 78 131.309 85.8373 94.547 101.064C57.7099 116.323 25.3924 139.244 -2.68192 167.318C-30.7486 195.385 -54.1734 228.201 -69.4354 265.047C-84.6681 301.822 -92.9999 344.724 -92.9999 384.5V389.053L210.553 385.5L210.447 376.5L-83.9627 379.947C-83.3542 342.616 -75.3112 302.751 -61.1205 268.491C-46.3804 232.905 -23.6879 201.052 3.68204 173.682C31.0443 146.32 62.3968 124.123 97.9911 109.379C133.661 94.6045 171.891 87 210.5 87V78Z" fill="#323232"/>
<circle cx="210.5" cy="82.5" r="40.5" fill="#6228FF"/>
<path d="M189.25 89.78V80.15H187V78.89C187.768 78.794 188.35 78.608 188.746 78.332C189.142 78.056 189.46 77.672 189.7 77.18H191.23V89.78H189.25Z" fill="white"/>
<path d="M201.546 86.954C202.17 86.138 202.482 84.98 202.482 83.48C202.482 81.98 202.17 80.828 201.546 80.024C200.922 79.208 200.154 78.8 199.242 78.8C198.33 78.8 197.562 79.208 196.938 80.024C196.314 80.828 196.002 81.98 196.002 83.48C196.002 84.98 196.314 86.138 196.938 86.954C197.562 87.758 198.33 88.16 199.242 88.16C200.154 88.16 200.922 87.758 201.546 86.954ZM202.968 88.232C201.972 89.384 200.73 89.96 199.242 89.96C197.754 89.96 196.512 89.384 195.516 88.232C194.52 87.068 194.022 85.484 194.022 83.48C194.022 81.476 194.52 79.898 195.516 78.746C196.512 77.582 197.754 77 199.242 77C200.73 77 201.972 77.582 202.968 78.746C203.964 79.898 204.462 81.476 204.462 83.48C204.462 85.484 203.964 87.068 202.968 88.232Z" fill="white"/>
<path d="M213.974 86.954C214.598 86.138 214.91 84.98 214.91 83.48C214.91 81.98 214.598 80.828 213.974 80.024C213.35 79.208 212.582 78.8 211.67 78.8C210.758 78.8 209.99 79.208 209.366 80.024C208.742 80.828 208.43 81.98 208.43 83.48C208.43 84.98 208.742 86.138 209.366 86.954C209.99 87.758 210.758 88.16 211.67 88.16C212.582 88.16 213.35 87.758 213.974 86.954ZM215.396 88.232C214.4 89.384 213.158 89.96 211.67 89.96C210.182 89.96 208.94 89.384 207.944 88.232C206.948 87.068 206.45 85.484 206.45 83.48C206.45 81.476 206.948 79.898 207.944 78.746C208.94 77.582 210.182 77 211.67 77C213.158 77 214.4 77.582 215.396 78.746C216.392 79.898 216.89 81.476 216.89 83.48C216.89 85.484 216.392 87.068 215.396 88.232Z" fill="white"/>
<path d="M223.215 81.77C222.663 81.218 222.387 80.558 222.387 79.79C222.387 79.022 222.663 78.368 223.215 77.828C223.779 77.276 224.463 77 225.267 77C226.071 77 226.749 77.276 227.301 77.828C227.865 78.368 228.147 79.022 228.147 79.79C228.147 80.558 227.865 81.218 227.301 81.77C226.749 82.31 226.071 82.58 225.267 82.58C224.463 82.58 223.779 82.31 223.215 81.77ZM224.241 78.764C223.965 79.04 223.827 79.382 223.827 79.79C223.827 80.198 223.965 80.54 224.241 80.816C224.517 81.092 224.859 81.23 225.267 81.23C225.675 81.23 226.017 81.092 226.293 80.816C226.569 80.54 226.707 80.198 226.707 79.79C226.707 79.382 226.569 79.04 226.293 78.764C226.017 78.488 225.675 78.35 225.267 78.35C224.859 78.35 224.517 78.488 224.241 78.764ZM224.007 89.78L231.927 77.18H233.547L225.627 89.78H224.007ZM230.235 89.15C229.683 88.598 229.407 87.938 229.407 87.17C229.407 86.402 229.683 85.748 230.235 85.208C230.799 84.656 231.483 84.38 232.287 84.38C233.091 84.38 233.769 84.656 234.321 85.208C234.885 85.748 235.167 86.402 235.167 87.17C235.167 87.938 234.885 88.598 234.321 89.15C233.769 89.69 233.091 89.96 232.287 89.96C231.483 89.96 230.799 89.69 230.235 89.15ZM231.261 88.196C231.537 88.472 231.879 88.61 232.287 88.61C232.695 88.61 233.037 88.472 233.313 88.196C233.589 87.92 233.727 87.578 233.727 87.17C233.727 86.762 233.589 86.42 233.313 86.144C233.037 85.868 232.695 85.73 232.287 85.73C231.879 85.73 231.537 85.868 231.261 86.144C230.985 86.42 230.847 86.762 230.847 87.17C230.847 87.578 230.985 87.92 231.261 88.196Z" fill="white"/>
</g>
<defs>
<clipPath id="clip0_0_3">
<rect width="422" height="179" fill="white"/>
</clipPath>
</defs>
</svg>
