<svg width="442" height="167" viewBox="0 0 442 167" fill="none" xmlns="http://www.w3.org/2000/svg">
<g clip-path="url(#clip0_4_296)">
<path fill-rule="evenodd" clip-rule="evenodd" d="M221.5 644C381.386 644 511 514.386 511 354.5C511 194.614 381.386 65 221.5 65C61.6136 65 -68 194.614 -68 354.5C-68 514.386 61.6136 644 221.5 644ZM221.5 653C386.357 653 520 519.357 520 354.5C520 189.643 386.357 56 221.5 56C56.643 56 -77 189.643 -77 354.5C-77 519.357 56.643 653 221.5 653Z" fill="#2F2F2F" fill-opacity="0.2"/>
<path fill-rule="evenodd" clip-rule="evenodd" d="M221.5 56C181.71 56 142.309 63.8373 105.547 79.0645C68.7099 94.3229 36.3924 117.244 8.31808 145.318C-19.7486 173.385 -43.1734 206.201 -58.4354 243.047C-73.6681 279.822 -81.9999 322.724 -81.9999 362.5V367.053L221.553 363.5L221.447 354.5L-72.9627 357.947C-72.3542 320.616 -64.3112 280.751 -50.1205 246.491C-35.3804 210.905 -12.6879 179.052 14.682 151.682C42.0443 124.32 73.3968 102.123 108.991 87.3794C144.661 72.6045 182.891 65 221.5 65V56Z" fill="#323232"/>
<g filter="url(#filter0_d_4_296)">
<circle cx="221.5" cy="60.5" r="40.5" fill="#6228FF"/>
</g>
<path d="M200.25 67.78V58.15H198V56.89C198.768 56.794 199.35 56.608 199.746 56.332C200.142 56.056 200.46 55.672 200.7 55.18H202.23V67.78H200.25Z" fill="white"/>
<path d="M212.546 64.954C213.17 64.138 213.482 62.98 213.482 61.48C213.482 59.98 213.17 58.828 212.546 58.024C211.922 57.208 211.154 56.8 210.242 56.8C209.33 56.8 208.562 57.208 207.938 58.024C207.314 58.828 207.002 59.98 207.002 61.48C207.002 62.98 207.314 64.138 207.938 64.954C208.562 65.758 209.33 66.16 210.242 66.16C211.154 66.16 211.922 65.758 212.546 64.954ZM213.968 66.232C212.972 67.384 211.73 67.96 210.242 67.96C208.754 67.96 207.512 67.384 206.516 66.232C205.52 65.068 205.022 63.484 205.022 61.48C205.022 59.476 205.52 57.898 206.516 56.746C207.512 55.582 208.754 55 210.242 55C211.73 55 212.972 55.582 213.968 56.746C214.964 57.898 215.462 59.476 215.462 61.48C215.462 63.484 214.964 65.068 213.968 66.232Z" fill="white"/>
<path d="M224.974 64.954C225.598 64.138 225.91 62.98 225.91 61.48C225.91 59.98 225.598 58.828 224.974 58.024C224.35 57.208 223.582 56.8 222.67 56.8C221.758 56.8 220.99 57.208 220.366 58.024C219.742 58.828 219.43 59.98 219.43 61.48C219.43 62.98 219.742 64.138 220.366 64.954C220.99 65.758 221.758 66.16 222.67 66.16C223.582 66.16 224.35 65.758 224.974 64.954ZM226.396 66.232C225.4 67.384 224.158 67.96 222.67 67.96C221.182 67.96 219.94 67.384 218.944 66.232C217.948 65.068 217.45 63.484 217.45 61.48C217.45 59.476 217.948 57.898 218.944 56.746C219.94 55.582 221.182 55 222.67 55C224.158 55 225.4 55.582 226.396 56.746C227.392 57.898 227.89 59.476 227.89 61.48C227.89 63.484 227.392 65.068 226.396 66.232Z" fill="white"/>
<path d="M234.215 59.77C233.663 59.218 233.387 58.558 233.387 57.79C233.387 57.022 233.663 56.368 234.215 55.828C234.779 55.276 235.463 55 236.267 55C237.071 55 237.749 55.276 238.301 55.828C238.865 56.368 239.147 57.022 239.147 57.79C239.147 58.558 238.865 59.218 238.301 59.77C237.749 60.31 237.071 60.58 236.267 60.58C235.463 60.58 234.779 60.31 234.215 59.77ZM235.241 56.764C234.965 57.04 234.827 57.382 234.827 57.79C234.827 58.198 234.965 58.54 235.241 58.816C235.517 59.092 235.859 59.23 236.267 59.23C236.675 59.23 237.017 59.092 237.293 58.816C237.569 58.54 237.707 58.198 237.707 57.79C237.707 57.382 237.569 57.04 237.293 56.764C237.017 56.488 236.675 56.35 236.267 56.35C235.859 56.35 235.517 56.488 235.241 56.764ZM235.007 67.78L242.927 55.18H244.547L236.627 67.78H235.007ZM241.235 67.15C240.683 66.598 240.407 65.938 240.407 65.17C240.407 64.402 240.683 63.748 241.235 63.208C241.799 62.656 242.483 62.38 243.287 62.38C244.091 62.38 244.769 62.656 245.321 63.208C245.885 63.748 246.167 64.402 246.167 65.17C246.167 65.938 245.885 66.598 245.321 67.15C244.769 67.69 244.091 67.96 243.287 67.96C242.483 67.96 241.799 67.69 241.235 67.15ZM242.261 66.196C242.537 66.472 242.879 66.61 243.287 66.61C243.695 66.61 244.037 66.472 244.313 66.196C244.589 65.92 244.727 65.578 244.727 65.17C244.727 64.762 244.589 64.42 244.313 64.144C244.037 63.868 243.695 63.73 243.287 63.73C242.879 63.73 242.537 63.868 242.261 64.144C241.985 64.42 241.847 64.762 241.847 65.17C241.847 65.578 241.985 65.92 242.261 66.196Z" fill="white"/>
</g>
<defs>
<filter id="filter0_d_4_296" x="158" y="1" width="127" height="127" filterUnits="userSpaceOnUse" color-interpolation-filters="sRGB">
<feFlood flood-opacity="0" result="BackgroundImageFix"/>
<feColorMatrix in="SourceAlpha" type="matrix" values="0 0 0 0 0 0 0 0 0 0 0 0 0 0 0 0 0 0 127 0" result="hardAlpha"/>
<feOffset dy="4"/>
<feGaussianBlur stdDeviation="11.5"/>
<feComposite in2="hardAlpha" operator="out"/>
<feColorMatrix type="matrix" values="0 0 0 0 1 0 0 0 0 1 0 0 0 0 1 0 0 0 0.4 0"/>
<feBlend mode="normal" in2="BackgroundImageFix" result="effect1_dropShadow_4_296"/>
<feBlend mode="normal" in="SourceGraphic" in2="effect1_dropShadow_4_296" result="shape"/>
</filter>
<clipPath id="clip0_4_296">
<rect width="442" height="167" fill="white"/>
</clipPath>
</defs>
</svg>
