<svg width="20" height="20" viewBox="0 0 20 20" fill="none" xmlns="http://www.w3.org/2000/svg">
<path d="M9.98636 3.33398L16.1819 3.33398L16.1819 6.10343C16.2771 7.68326 16.5341 9.17743 16.9528 10.5859C17.3716 11.9945 18.0283 13.3173 18.9229 14.5545L15.1541 16.6673C13.422 15.2017 12.1277 13.5172 11.2712 11.6138C10.4146 9.69135 9.98636 7.82601 9.98636 6.01778L9.98636 3.33398ZM1.66825 3.33398L7.83528 3.33398L7.83528 6.10343C7.94949 7.68326 8.21596 9.17743 8.63471 10.5859C9.05346 11.9945 9.71013 13.3173 10.6047 14.5545L6.83599 16.6673C5.08486 15.2017 3.79054 13.5172 2.95305 11.6138C2.09651 9.69135 1.66825 7.82601 1.66825 6.01778L1.66825 3.33398Z" fill="#6228FF"/>
</svg>
