<svg width="230" height="100" viewBox="0 0 230 100" fill="none" xmlns="http://www.w3.org/2000/svg">
<path d="M49.2929 25.0001C46.6657 26.3498 43.9916 27.7461 41.7866 30.0266C39.7223 32.1209 39.1593 35.7046 40.426 38.404C41.7677 41.0402 43.5081 43.4573 45.5867 45.5714C44.1972 38.4957 45.5188 31.1602 49.2929 25.0001Z" fill="#9395A0"/>
<path d="M47.1348 46.9216C49.7151 48.5505 52.2485 50.0864 55.2041 50.7845C58.4412 51.5292 61.4907 50.1795 63.4142 47.6197C64.9278 45.1778 66.1108 42.5489 66.9328 39.8008C61.4385 44.5051 54.3915 47.0397 47.1348 46.9216Z" fill="#9395A0"/>
<path d="M66.4172 27.1876C65.7921 26.0564 64.8959 25.0953 63.8077 24.3891C62.7195 23.683 61.4727 23.2534 60.1775 23.1385C57.2569 23.026 54.3349 23.3237 51.4983 24.0228C57.9256 26.0706 64.306 31.3763 67.5901 37.4732C67.7308 33.9361 67.9185 30.1663 66.4172 27.1876Z" fill="#9395A0"/>
<path d="M122.574 37.4736V48.8297H119.29V37.4736H111.736V64.9795H119.29V53.5769H122.527V64.9795H130.08V37.4736H122.574Z" fill="#9395A0"/>
<path d="M137.398 37.4727C135.005 37.4727 133.363 39.5205 133.363 41.9872V64.9786H140.87V53.5759H143.919V64.9786H151.379V37.4727H137.398ZM143.919 48.8287H140.87V43.2438C140.87 42.2199 141.245 41.8475 142.183 41.8475H143.919V48.8287Z" fill="#9395A0"/>
<path d="M88.7486 51.0627C90.4844 50.8766 92.5018 49.0614 92.5018 46.6413V41.9872C92.4549 39.4739 90.5783 37.4727 88.6078 37.4727H74.2988V64.9786H81.7583V53.5759H83.6349C84.5263 53.5759 84.9485 53.9948 84.9485 55.0187V65.0251H92.5018V55.5772C92.5018 53.1105 90.5314 51.2489 88.7486 51.0627ZM84.9485 47.4325C84.9954 48.2702 84.6201 48.7357 84.0102 48.8287H81.8052V41.8475H83.6818C84.6201 41.8475 84.9954 42.313 84.9954 43.2438L84.9485 47.4325Z" fill="#9395A0"/>
<path d="M103.338 42.7793H108.499V37.4736H95.7852V64.9795H108.499V59.6738H103.338V53.5769H107.702V48.8297H103.338V42.7793Z" fill="#9395A0"/>
<path d="M172.257 62.2332C172.652 61.1774 172.827 60.0535 172.773 58.9288V37.5198H165.407V58.7426C165.413 58.9538 165.373 59.1637 165.291 59.3588C165.21 59.5538 165.087 59.7295 164.932 59.8744C164.777 60.0193 164.593 60.1302 164.392 60.1998C164.191 60.2695 163.978 60.2962 163.765 60.2785H163.719C163.507 60.2926 163.295 60.2633 163.096 60.1923C162.896 60.1214 162.714 60.0103 162.56 59.8661C162.405 59.7219 162.283 59.5477 162.2 59.3544C162.117 59.1611 162.075 58.9528 162.077 58.7426V37.5198H154.711V58.9288C154.645 60.0541 154.821 61.1804 155.227 62.2332C155.529 62.8676 155.967 63.4293 156.51 63.8793C157.052 64.3293 157.687 64.6569 158.37 64.8395C159.035 64.9659 159.712 65.0127 160.388 64.9791H167.143C167.818 64.9875 168.493 64.9408 169.161 64.8395C169.83 64.6398 170.45 64.3053 170.983 63.8568C171.516 63.4083 171.949 62.8556 172.257 62.2332Z" fill="#9395A0"/>
</svg>
