<svg width="230" height="100" viewBox="0 0 230 100" fill="none" xmlns="http://www.w3.org/2000/svg">
<path d="M198.57 45.6414L195.009 54.6149L191.448 45.6414H187.159V58.4309H190.278V50.334L193.736 58.4309H196.283L199.739 50.334V58.4309H202.859V45.6414H198.57ZM178.459 45.2821C181.999 45.2821 185.515 47.5553 185.515 52.0502C185.515 56.545 181.999 58.8182 178.459 58.8182C174.917 58.8182 171.402 56.545 171.402 52.0502C171.402 47.5553 174.917 45.2821 178.459 45.2821ZM178.459 55.7698C180.385 55.7698 182.182 54.4008 182.182 52.0502C182.182 49.6995 180.385 48.3302 178.459 48.3302C176.531 48.3302 174.735 49.6995 174.735 52.0502C174.735 54.4008 176.531 55.7698 178.459 55.7698ZM104.748 48.4851H108.602V58.4565H111.883V48.4851H115.737V45.6438H104.748V48.4851ZM151.695 45.2821C155.392 45.2821 157.997 47.9429 157.997 51.6885V52.8251H148.049C148.258 54.7884 149.664 56.0281 151.591 56.0281C153.336 56.0281 154.064 55.2791 154.872 54.2718L157.476 55.5633C156.174 57.7587 154.377 58.8179 151.539 58.8179C147.945 58.8179 144.899 56.1059 144.899 52.0498C144.899 47.9944 147.945 45.2821 151.695 45.2821ZM154.95 50.3451C154.637 48.7434 153.414 47.7621 151.591 47.7621C149.872 47.7621 148.57 48.8987 148.101 50.3451H154.95ZM123.418 45.2821C127.116 45.2821 129.72 47.9429 129.72 51.6885V52.8251H119.773C119.981 54.7884 121.387 56.0281 123.314 56.0281C125.059 56.0281 125.788 55.2791 126.595 54.2718L129.199 55.5633C127.897 57.7587 126.1 58.8179 123.262 58.8179C119.668 58.8179 116.622 56.1059 116.622 52.0498C116.622 47.9944 119.668 45.2821 123.418 45.2821ZM126.673 50.3451C126.361 48.7434 125.137 47.7621 123.314 47.7621C121.596 47.7621 120.294 48.8987 119.825 50.3451H126.673ZM132.725 52.9025C132.569 54.8656 132.177 55.3047 131.501 55.3047C131.037 55.3047 130.82 55.2542 130.504 55.1723L130.52 58.4873C130.52 58.4873 130.928 58.6114 131.683 58.6114C134.469 58.6114 135.51 56.8293 135.771 53.0318L136.084 48.5626H139.781V58.4306H143.062V45.6438H133.271L132.725 52.9025ZM97.7907 55.7698C95.8116 55.7698 94.3535 54.3493 94.3535 52.0498C94.3535 49.777 95.8635 48.3302 97.7907 48.3302C98.9622 48.3302 99.9779 48.8727 100.785 50.0868L103.597 48.4851C102.66 46.4962 100.629 45.2821 97.8168 45.2821C94.1447 45.2821 91.0202 47.9689 91.0202 52.0498C91.0202 56.1318 93.9889 58.8179 97.8168 58.8179C100.577 58.8179 102.425 57.5782 103.728 55.3825L101.019 53.9101C100.238 54.9952 99.4049 55.7698 97.7907 55.7698ZM82.3575 45.2821C85.8985 45.2821 89.4137 47.5553 89.4137 52.0502C89.4137 56.545 85.8985 58.8179 82.3575 58.8179C78.8158 58.8179 75.3009 56.545 75.3009 52.0502C75.3009 47.5553 78.8158 45.2821 82.3575 45.2821ZM82.3575 55.7698C84.2843 55.7698 86.0811 54.4008 86.0811 52.0502C86.0811 49.6995 84.2843 48.3302 82.3575 48.3302C80.4303 48.3302 78.6335 49.6995 78.6335 52.0502C78.6335 54.4008 80.4303 55.7698 82.3575 55.7698ZM67.7765 40.374C71.8909 40.374 74.5989 42.4664 74.5989 46.2634C74.5989 50.0612 71.8909 52.1532 67.7765 52.1532H62.9332V58.4562H59.4961V40.374H67.7765ZM67.6726 49.1051C70.0679 49.1051 71.1617 47.9685 71.1617 46.2634C71.1617 44.5587 70.0679 43.4221 67.6726 43.4221H62.9332V49.1051H67.6726ZM165.851 51.5854L171.945 58.4565H167.986L163.273 53.1605V58.4565H159.992V45.6438H163.273V50.2936L167.908 45.6438H171.789L165.851 51.5854Z" fill="#9395A0"/>
<path d="M31.2285 63.6818C28.6656 63.6818 28.2529 61.199 29.3439 60.123L37.22 52.3556C37.2234 52.3525 48.6555 63.6818 48.6555 63.6818H31.2285ZM37.4385 52.1402L54.5765 35.2451L38.8833 19.7183L29.9981 28.5144C27.3428 31.1403 27.7018 32.8588 27.7018 36.3862V60.5189C27.7018 62.3841 29.2616 63.9788 31.2265 63.9788H49.3791L48.8681 63.4722L37.4385 52.1402Z" fill="#9395A0"/>
</svg>
