<svg width="65" height="64" viewBox="0 0 65 64" fill="none" xmlns="http://www.w3.org/2000/svg">
<g id="1433_group">
<mask id="mask0_500_4000" style="mask-type:alpha" maskUnits="userSpaceOnUse" x="0" y="0" width="65" height="64">
<circle id="1434_ellipse" cx="32.5" cy="32" r="32" fill="black"/>
</mask>
<g mask="url(#mask0_500_4000)">
<circle id="1434_ellipse_2" cx="32.5" cy="32" r="32" fill="#226DE4"/>
<path id="Path 5563" fill-rule="evenodd" clip-rule="evenodd" d="M18.5 28.5916C18.5309 26.9469 19.72 25.557 21.3338 25.2636C25.5807 24.4297 26.1985 24.2521 29.2562 20.3681C30.0593 19.3566 31.287 18.7697 32.5843 18.7697C32.9163 18.7697 33.2406 18.8083 33.5649 18.8855C37.7886 19.8585 39.1399 18.6539 40.3599 15.8509C41.0472 14.3452 42.8 13.6503 44.3366 14.2757C45.8191 14.824 46.5759 16.4687 46.0276 17.9589C46.0122 17.9975 45.9967 18.0362 45.9813 18.0748C45.4871 19.179 44.3752 19.8893 43.1629 19.8739C43.0239 19.8739 42.8926 19.8585 42.7614 19.843C39.6264 19.4569 37.8272 19.9434 36.5841 23.92C36.0744 25.4644 34.7077 26.5686 33.0862 26.7384C28.0285 27.333 27.5652 27.75 24.6927 30.8463C23.3646 32.2517 21.1794 32.3752 19.6969 31.1398C18.9401 30.5143 18.5 29.58 18.5 28.5993V28.5916ZM19.0096 16.9706C19.0096 18.6076 20.3532 19.9357 21.9902 19.928C22.3299 19.928 22.662 19.8662 22.9785 19.7504C23.8048 19.4724 24.4534 18.8315 24.7468 18.013C25.3182 16.4687 24.5229 14.7545 22.9785 14.1831C22.2141 13.9051 21.3724 13.9437 20.6466 14.2989C19.6428 14.7545 19.0019 15.7583 19.0096 16.8625V16.9706ZM46.7148 28.5916C46.6685 30.5066 45.0856 32.02 43.1706 31.9814C43.0007 31.9814 42.8309 31.966 42.6687 31.9428C39.6341 31.5258 38.0512 32.1127 36.9007 35.6724C36.3061 37.402 34.7309 38.5989 32.9008 38.6992C27.2949 39.0853 26.9089 39.6644 24.2295 42.2666C23.0249 43.4326 21.1254 43.4635 19.8899 42.3284C18.7239 41.2783 18.639 39.4791 19.6891 38.3132C19.7277 38.2668 19.7741 38.2205 19.8204 38.1819C20.2219 37.7881 20.7238 37.5101 21.2721 37.3788C24.9784 36.4754 25.6966 36.4368 28.8393 31.9814C29.9203 30.4757 31.8044 29.773 33.6035 30.1977C37.3948 31.0394 38.7152 30.0201 39.8735 27.3098C40.6611 25.5493 42.6919 24.7231 44.4833 25.4258C45.8114 25.9122 46.6994 27.1708 46.7071 28.5839L46.7148 28.5916ZM46.3828 40.2204C46.3519 41.6103 45.3636 42.7917 44.0046 43.0697C40.0047 43.9731 39.3175 44.0426 36.0976 48.3436C34.7232 50.1273 32.1982 50.5288 30.3295 49.2624C28.5536 48.0965 28.0594 45.7182 29.2253 43.9422C29.264 43.8727 29.3103 43.811 29.3566 43.7492C30.0747 42.8072 31.1558 42.2126 32.3372 42.1122C37.8427 41.6257 38.2519 41.0852 41.0703 38.2359C42.2517 37.0545 44.1435 36.9928 45.4022 38.0892C46.0199 38.6375 46.3751 39.4174 46.3751 40.2436V40.2127L46.3828 40.2204Z" fill="white"/>
</g>
</g>
</svg>
