<svg width="230" height="100" viewBox="0 0 230 100" fill="none" xmlns="http://www.w3.org/2000/svg">
<g clip-path="url(#clip0_229_2148)">
<path fill-rule="evenodd" clip-rule="evenodd" d="M88.3803 39.1138H77.2471V57.7981H80.5955V50.3244H88.3803C92.3146 50.3244 96.3326 49.7431 96.3326 45.0928V44.3454C96.3326 39.7781 92.3146 39.1138 88.3803 39.1138ZM92.9842 45.0928C92.9842 47.2519 91.059 47.2519 88.7988 47.2519H80.5118V42.2694H90.1382C90.6219 42.2862 91.1009 42.37 91.5612 42.5185C91.9889 42.6164 92.3674 42.8626 92.6283 43.2128C92.8892 43.563 93.0154 43.9941 92.9842 44.4284V45.0928ZM97.1696 39.1138H116.674V42.2694H108.554V57.7981H105.206V42.2694H97.0859L97.1696 39.1138ZM140.865 39.1138H143.628V57.7981H140.279V46.0893L134.336 55.1408L132.076 55.0578L125.965 46.0062V57.7981H122.617V39.1138H125.296L133.164 50.8226L140.865 39.1138ZM162.797 39.1138H165.308V57.7981H161.96V44.3454L148.566 57.7981H145.971V39.1138H149.32V52.6496L162.797 39.1138ZM184.896 51.57L187.407 53.8952L187.323 54.0613C187.02 54.6214 186.624 55.1268 186.151 55.556C184.059 57.2169 180.459 57.7981 177.864 57.7981C170.916 57.7981 166.982 54.9747 166.982 48.4975C166.982 41.9372 170.916 39.1968 177.864 39.1968C180.459 39.1968 184.059 39.6951 186.151 41.439C186.612 41.848 187.007 42.324 187.323 42.8507V43.0167L184.896 45.3419L184.728 45.0097L184.477 44.5945L184.31 44.2624C184.256 44.1323 184.169 44.018 184.059 43.9302C182.719 42.5185 179.873 42.2694 177.864 42.2694C172.674 42.2694 170.33 43.6811 170.33 48.4975C170.33 53.3139 172.674 54.7256 177.864 54.7256C179.957 54.7256 182.719 54.4765 184.059 53.0648C184.148 52.9875 184.232 52.9043 184.31 52.8156C184.353 52.6991 184.409 52.5876 184.477 52.4835L184.728 51.9852L184.896 51.57ZM42.592 47.3349C42.5972 46.6909 42.8242 46.068 43.2353 45.5696C43.6464 45.0711 44.2169 44.7271 44.8522 44.5945C48.2005 43.8472 48.7864 43.7641 51.214 40.4425C51.5344 40.0452 51.9427 39.7262 52.4071 39.5102C52.8715 39.2943 53.3798 39.187 53.8926 39.1968C54.1429 39.1687 54.3957 39.1687 54.646 39.1968C57.9943 40.0272 59.0825 39.0307 60.087 36.7056C60.2424 36.271 60.5163 35.8877 60.8782 35.5984C61.2402 35.309 61.6759 35.1251 62.1371 35.0669C62.5982 35.0087 63.0665 35.0787 63.4899 35.2689C63.9133 35.4592 64.2752 35.7623 64.5353 36.1445C64.7953 36.5267 64.9433 36.973 64.9628 37.4337C64.9824 37.8944 64.8726 38.3514 64.6458 38.7539C64.4189 39.1564 64.084 39.4886 63.6781 39.7134C63.2723 39.9382 62.8115 40.0468 62.3471 40.0272C62.2357 40.0361 62.1237 40.0361 62.0123 40.0272C59.5011 39.6951 58.078 40.1103 56.9898 43.4319C56.8027 44.0415 56.4428 44.5849 55.953 44.9972C55.4632 45.4094 54.8642 45.6732 54.2274 45.7571C50.2095 46.2554 49.7909 46.5875 47.5308 49.1618C47.1478 49.5747 46.6494 49.8649 46.0993 49.9955C45.5492 50.1261 44.9724 50.0912 44.4424 49.8951C43.9125 49.6991 43.4534 49.3508 43.1238 48.8948C42.7943 48.4388 42.6091 47.8958 42.592 47.3349V47.3349ZM42.9269 37.619C42.9269 37.1263 43.0742 36.6447 43.3501 36.235C43.626 35.8253 44.0182 35.506 44.4771 35.3174C44.936 35.1289 45.4409 35.0795 45.928 35.1757C46.4152 35.2718 46.8626 35.5091 47.2138 35.8575C47.565 36.2059 47.8042 36.6498 47.9011 37.133C47.998 37.6163 47.9483 38.1172 47.7582 38.5724C47.5681 39.0276 47.2463 39.4167 46.8333 39.6904C46.4203 39.9642 45.9348 40.1103 45.4381 40.1103C44.7721 40.1103 44.1333 39.8478 43.6624 39.3806C43.1914 38.9134 42.9269 38.2798 42.9269 37.619ZM65.1932 47.3349C65.1932 48.0837 64.8933 48.8019 64.3596 49.3314C63.8259 49.8609 63.1019 50.1583 62.3471 50.1583C62.2078 50.1688 62.0679 50.1688 61.9286 50.1583C59.4173 49.7431 58.2454 50.2414 57.3246 53.2309C57.1079 53.9149 56.6886 54.5185 56.1212 54.9628C55.5539 55.4071 54.8648 55.6717 54.1437 55.7221C49.6235 56.0543 49.2887 56.5525 47.196 58.7116C46.9351 59.0094 46.6066 59.2414 46.2376 59.3886C45.8686 59.5358 45.4696 59.5939 45.0735 59.5582C44.6774 59.5225 44.2956 59.394 43.9593 59.1833C43.6231 58.9725 43.3422 58.6856 43.1396 58.3461C42.937 58.0065 42.8187 57.6241 42.7942 57.2303C42.7698 56.8365 42.84 56.4426 42.999 56.0809C43.1581 55.7193 43.4014 55.4003 43.709 55.1503C44.0167 54.9002 44.3798 54.7262 44.7684 54.6426C47.7819 53.8121 48.3679 53.8121 50.8791 50.1583C51.2827 49.5624 51.8581 49.101 52.5301 48.8343C53.202 48.5677 53.9394 48.5082 54.646 48.6636C57.7432 49.3279 58.8314 48.4975 59.6685 46.2554C59.897 45.6172 60.3491 45.0818 60.9424 44.7468C61.5357 44.4117 62.2306 44.2994 62.9004 44.4303C63.5702 44.5612 64.1702 44.9265 64.5911 45.4597C65.012 45.9929 65.2257 46.6584 65.1932 47.3349ZM64.7747 56.9677C64.7714 57.5249 64.58 58.0649 64.231 58.5015C63.882 58.938 63.3955 59.2459 62.8494 59.3759C59.6685 60.1233 59.0825 60.2064 56.5713 63.7771C56.2362 64.2104 55.7986 64.5551 55.2972 64.7806C54.7958 65.006 54.2461 65.1054 53.6968 65.0699C53.1475 65.0343 52.6155 64.865 52.1479 64.5768C51.6803 64.2886 51.2915 63.8905 51.016 63.4178C50.7404 62.945 50.5867 62.4121 50.5683 61.8663C50.5499 61.3205 50.6674 60.7786 50.9105 60.2886C51.1535 59.7986 51.5146 59.3756 51.9618 59.0571C52.4089 58.7386 52.9284 58.5343 53.4741 58.4625C57.8269 58.0473 58.1617 57.6321 60.4218 55.2239C60.7676 54.8866 61.2045 54.6559 61.6796 54.5595C62.1547 54.4632 62.6478 54.5054 63.0992 54.681C63.5507 54.8567 63.9412 55.1582 64.2237 55.5493C64.5062 55.9403 64.6684 56.4041 64.6909 56.8847L64.7747 56.9677Z" fill="#9395A0"/>
</g>
<defs>
<clipPath id="clip0_229_2148">
<rect width="144.815" height="29.895" fill="white" transform="translate(42.5918 35.2109)"/>
</clipPath>
</defs>
</svg>
