<svg width="230" height="100" viewBox="0 0 230 100" fill="none" xmlns="http://www.w3.org/2000/svg">
<path fill-rule="evenodd" clip-rule="evenodd" d="M131.818 52.691H124.062L127.906 45.5709L131.818 52.691ZM135.628 59.7807L141.225 59.7772L130.835 40.6883H124.974L114.672 59.7807H120.219L122.101 56.3071H133.774L135.628 59.7807ZM97.1574 48.4186H106.888C108.144 48.4186 109.054 48.0744 109.054 46.4967C109.054 45.0615 108.173 44.4861 107.003 44.4861H97.1574V48.4186ZM97.1574 56.0472H107.475C108.873 56.0472 109.629 55.3666 109.629 53.6428C109.629 52.1216 108.759 52.0078 107.56 52.0078H97.1574V56.0472ZM92.0999 59.8433V40.6987H108.081C111.563 40.6987 113.961 41.7322 113.961 45.6361C113.961 46.8418 113.726 48.5733 112.727 49.4061C112.4 49.7025 112.005 49.8981 111.588 50.0467C113.712 50.5196 114.689 52.4876 114.703 54.333C114.735 58.781 112.42 59.8442 108.367 59.8442H92.0999V59.8433ZM147.866 44.4861H156.979C157.521 44.4861 158.12 44.7494 158.635 44.8929C159.719 45.2084 160.178 46.5566 160.206 47.5606C160.206 49.6842 159.546 50.7925 156.835 50.7925H147.866V44.4861ZM147.866 54.353H157.615C160.041 54.353 160.341 55.856 160.341 57.9509V59.7877H165.398V57.5736C165.398 55.331 164.3 53.0691 162.499 52.3529C163.544 51.6062 164.253 50.6569 164.589 49.9441C164.874 49.3409 165.338 48.3508 165.298 46.6992C165.181 42.0791 163.608 40.6874 159.127 40.6874H142.606V59.7764L147.865 59.7868V54.353H147.866ZM55.7919 52.3868C57.047 52.3868 58.4749 52.3685 58.4749 53.9184C58.4749 55.5552 57.8768 56.0811 55.906 56.0472H47.8924C46.009 56.0298 44.9233 56.1376 44.9233 54.3869L39.1873 54.3852V55.0849C39.1873 59.4486 41.2549 59.8459 45.1809 59.8459H57.8094C62.1589 59.8459 63.8444 58.6541 63.8444 53.9462C63.8444 48.981 61.8209 48.6576 57.4386 48.5212L46.5812 48.1187C45.1653 48.1187 44.5922 47.7745 44.5922 45.909C44.5922 44.7607 45.3849 44.0019 46.4126 43.9445H55.6199C56.9035 44.0019 57.7601 44.5426 57.8457 45.9786H63.5255C63.497 44.7729 63.5255 43.642 62.8971 42.5224C61.527 40.2545 58.9011 40.2258 56.5604 40.198L51.1165 40.1406C48.9193 40.1406 44.6087 40.1693 42.5817 40.7152C39.5564 41.4897 39.043 43.4421 39.043 46.2837C39.043 49.8711 40.1407 51.7965 43.9241 51.9765L55.7919 52.3868ZM85.0527 59.8589C88.0538 59.8589 89.5371 58.489 89.5371 55.3362V40.6883H84.445L84.4502 53.4377C84.3647 56.2784 84.3603 56.0472 81.1077 56.0472H74.7018C71.565 56.042 71.3973 56.1489 71.2625 53.4377V40.6883H66.1877L66.205 55.404C66.205 58.5907 67.4186 59.8468 70.6557 59.8468L85.0527 59.8589ZM186.472 59.8589C189.472 59.8589 190.957 58.489 190.957 55.3362V40.6883H185.865L185.87 53.4377C185.785 56.2784 185.78 56.0472 182.527 56.0472H176.122C172.985 56.042 172.817 56.1489 172.683 53.4377V40.6883H167.608L167.625 55.404C167.625 58.5907 168.839 59.8468 172.075 59.8468L186.472 59.8589Z" fill="#9395A0"/>
</svg>
