<svg width="230" height="100" viewBox="0 0 230 100" fill="none" xmlns="http://www.w3.org/2000/svg">
<path d="M50.2041 25.8768C53.1589 33.2671 48.3412 38.0107 43.5424 42.762C39.0762 47.6165 35.1421 52.6627 43.0547 61.7441C40.0989 54.3549 44.9176 49.6103 49.7125 44.8638C54.1826 39.9986 58.1167 34.9592 50.2041 25.8768Z" fill="#9395A0"/>
<path d="M43.0545 16.4257C46.0142 23.8188 41.1985 28.5595 36.3957 33.308C31.9305 38.1664 27.9974 43.2125 35.913 52.2939C32.9553 44.8988 37.7729 40.1592 42.5708 35.4107C47.0389 30.5514 50.9681 25.5071 43.0545 16.4257Z" fill="#9395A0"/>
<path d="M164.484 45.6933V60.7988H171.196V55.269H178.572V51.9626H171.196V48.9997H185.827V60.7988H192.54V48.9997H198.621V45.6933H164.484Z" fill="#9395A0"/>
<path d="M150.083 57.5206V54.9022H158.836V51.5929H150.083V48.9997H161.326V45.6933H143.371V60.7988H161.464V57.5206H150.083Z" fill="#9395A0"/>
<path d="M79.2877 45.6933H60.6875V48.9997H66.6315V60.7988H73.3437V48.9997H79.2877V45.6933Z" fill="#9395A0"/>
<path d="M84.3709 55.0754L87.4767 49.2284L90.4492 55.0754H84.3709ZM92.5412 45.6933H85.3463L76.9688 60.7988H81.3313L82.7085 58.2056H92.1157L93.4889 60.7988H100.923L92.5412 45.6933Z" fill="#9395A0"/>
<path d="M135.136 45.6933V53.2451L124.401 45.6933H119.191V60.7988H123.786V52.4881L134.809 60.7988H139.73V45.6933H135.136Z" fill="#9395A0"/>
<path d="M116.909 45.6933H98.6992V48.9997H104.642V60.7988H111.355V48.9997H116.909V45.6933Z" fill="#9395A0"/>
</svg>
