<svg width="20" height="20" viewBox="0 0 20 20" fill="none" xmlns="http://www.w3.org/2000/svg">
<g clip-path="url(#clip0_229_2381)">
<path fill-rule="evenodd" clip-rule="evenodd" d="M20 10C20 15.5228 15.5228 20 10 20C4.47715 20 0 15.5228 0 10C0 4.47715 4.47715 0 10 0C15.5228 0 20 4.47715 20 10ZM10.3576 7.37805C9.38481 7.78476 7.44099 8.62333 4.52611 9.89377C4.05232 10.0825 3.80494 10.264 3.78397 10.4384C3.74518 10.7432 4.1254 10.8625 4.64664 11.0259C4.71692 11.048 4.78976 11.0708 4.86447 11.095C5.37517 11.2611 6.06196 11.4548 6.41919 11.4623C6.74288 11.4699 7.10431 11.3365 7.50347 11.0623C10.2272 9.22417 11.633 8.29503 11.7211 8.27491C11.7548 8.26169 11.7912 8.25662 11.8273 8.26012C11.8633 8.26362 11.8981 8.27558 11.9286 8.29503C11.9497 8.3189 11.9649 8.34738 11.973 8.37818C11.9811 8.40898 11.9818 8.44125 11.9752 8.47239C11.937 8.63277 10.4541 10.0118 9.67704 10.7344C9.43025 10.9639 9.25467 11.1272 9.21919 11.1642C9.14011 11.2467 9.05949 11.3245 8.98206 11.3993C8.50903 11.8563 8.15555 12.1978 9.0041 12.7567C9.40915 13.0239 9.73386 13.2451 10.0573 13.4653C10.4158 13.7095 10.7726 13.9525 11.2355 14.256C11.3512 14.3323 11.4616 14.4114 11.5692 14.4884C11.9848 14.7859 12.3575 15.0527 12.8192 15.0108C13.0859 14.9919 13.3626 14.7403 13.5022 13.9856C13.833 12.2145 14.4833 8.37679 14.6343 6.79566C14.6436 6.66423 14.6381 6.53216 14.6179 6.40195C14.606 6.2972 14.5553 6.2007 14.4758 6.13151C14.362 6.05322 14.2265 6.01273 14.0884 6.01579C13.7123 6.02208 13.1349 6.22333 10.3576 7.37805Z" fill="white"/>
</g>
<defs>
<clipPath id="clip0_229_2381">
<rect width="20" height="20" fill="white"/>
</clipPath>
</defs>
</svg>
