<svg width="36" height="36" viewBox="0 0 36 36" fill="none" xmlns="http://www.w3.org/2000/svg">
<g clip-path="url(#clip0_229_2377)">
<path fill-rule="evenodd" clip-rule="evenodd" d="M28 18C28 23.5228 23.5228 28 18 28C12.4772 28 8 23.5228 8 18C8 12.4772 12.4772 8 18 8C23.5228 8 28 12.4772 28 18ZM18.3576 15.3781C17.3848 15.7848 15.441 16.6233 12.5261 17.8938C12.0523 18.0825 11.8049 18.264 11.784 18.4384C11.7452 18.7432 12.1254 18.8625 12.6466 19.0259C12.7169 19.048 12.7898 19.0708 12.8645 19.095C13.3752 19.2611 14.062 19.4548 14.4192 19.4623C14.7429 19.4699 15.1043 19.3365 15.5035 19.0623C18.2272 17.2242 19.633 16.295 19.7211 16.2749C19.7548 16.2617 19.7912 16.2566 19.8273 16.2601C19.8633 16.2636 19.8981 16.2756 19.9286 16.295C19.9497 16.3189 19.9649 16.3474 19.973 16.3782C19.9811 16.409 19.9818 16.4412 19.9752 16.4724C19.937 16.6328 18.4541 18.0118 17.677 18.7344C17.4302 18.9639 17.2547 19.1272 17.2192 19.1642C17.1401 19.2467 17.0595 19.3245 16.9821 19.3993C16.509 19.8563 16.1556 20.1978 17.0041 20.7567C17.4092 21.0239 17.7339 21.2451 18.0573 21.4653C18.4158 21.7095 18.7726 21.9525 19.2355 22.256C19.3512 22.3323 19.4616 22.4114 19.5692 22.4884C19.9848 22.7859 20.3575 23.0527 20.8192 23.0108C21.0859 22.9919 21.3626 22.7403 21.5022 21.9856C21.833 20.2145 22.4833 16.3768 22.6343 14.7957C22.6436 14.6642 22.6381 14.5322 22.6179 14.402C22.606 14.2972 22.5553 14.2007 22.4758 14.1315C22.362 14.0532 22.2265 14.0127 22.0884 14.0158C21.7123 14.0221 21.1349 14.2233 18.3576 15.3781Z" fill="white"/>
</g>
<defs>
<clipPath id="clip0_229_2377">
<rect width="20" height="20" fill="white" transform="translate(8 8)"/>
</clipPath>
</defs>
</svg>
