<svg width="49" height="48" viewBox="0 0 49 48" fill="none" xmlns="http://www.w3.org/2000/svg">
<path d="M18.5 37H30.5M13.7 4H35.3C36.4201 4 36.9802 4 37.408 4.21799C37.7843 4.40973 38.0903 4.71569 38.282 5.09202C38.5 5.51984 38.5 6.0799 38.5 7.2V11.349C38.5 12.3274 38.5 12.8166 38.3895 13.2769C38.2915 13.6851 38.1299 14.0753 37.9106 14.4331C37.6632 14.8368 37.3173 15.1827 36.6255 15.8745L30.7627 21.7373C29.9707 22.5293 29.5747 22.9253 29.4263 23.382C29.2958 23.7837 29.2958 24.2163 29.4263 24.618C29.5747 25.0747 29.9707 25.4707 30.7627 26.2627L36.6255 32.1255C37.3173 32.8173 37.6632 33.1632 37.9106 33.5669C38.1299 33.9247 38.2915 34.3149 38.3895 34.7231C38.5 35.1834 38.5 35.6726 38.5 36.651V40.8C38.5 41.9201 38.5 42.4802 38.282 42.908C38.0903 43.2843 37.7843 43.5903 37.408 43.782C36.9802 44 36.4201 44 35.3 44H13.7C12.5799 44 12.0198 44 11.592 43.782C11.2157 43.5903 10.9097 43.2843 10.718 42.908C10.5 42.4802 10.5 41.9201 10.5 40.8V36.651C10.5 35.6726 10.5 35.1834 10.6105 34.7231C10.7085 34.3149 10.8701 33.9247 11.0894 33.5669C11.3368 33.1632 11.6827 32.8173 12.3745 32.1255L18.2373 26.2627C19.0293 25.4707 19.4253 25.0747 19.5737 24.618C19.7042 24.2163 19.7042 23.7837 19.5737 23.382C19.4253 22.9253 19.0293 22.5293 18.2373 21.7373L12.3745 15.8745C11.6827 15.1827 11.3368 14.8368 11.0894 14.4331C10.8701 14.0753 10.7085 13.6851 10.6105 13.2769C10.5 12.8166 10.5 12.3274 10.5 11.349V7.2C10.5 6.0799 10.5 5.51984 10.718 5.09202C10.9097 4.71569 11.2157 4.40973 11.592 4.21799C12.0198 4 12.5799 4 13.7 4Z" stroke="#9395A0" stroke-width="4" stroke-linecap="round" stroke-linejoin="round"/>
</svg>
