<svg width="230" height="100" viewBox="0 0 230 100" fill="none" xmlns="http://www.w3.org/2000/svg">
<path d="M39.6289 39.2236H60.2024V44.2819H53.2787V60.8707H46.7175V44.3133L39.6289 44.2819V39.2236Z" fill="#9395A0"/>
<path d="M72.4019 38.4697C80.7434 38.4697 83.0183 41.0774 83.0183 50.0002C83.0183 58.9229 80.7434 61.5306 72.4019 61.5306C64.0933 61.5306 61.8184 58.9229 61.8184 50.0002C61.8184 41.0774 64.0933 38.4697 72.4019 38.4697ZM68.3795 53.7703C68.3795 55.9382 71.149 55.9382 72.4019 55.9382C73.6877 55.9382 76.688 55.9382 76.688 53.7703V46.7955C76.688 44.2821 73.6877 43.9679 72.4019 43.9679C71.149 43.9679 68.3795 44.2821 68.3795 46.7955V53.7703Z" fill="#9395A0"/>
<path d="M100.098 45.853C100.098 44.5334 100.098 43.4966 96.8335 43.4966C93.3056 43.4966 93.3716 44.8162 93.3716 45.6331C93.3716 49.686 106.461 43.9679 106.461 53.9588C106.461 60.8708 102.241 61.2478 96.7675 61.2478C89.1184 61.2478 87.0742 60.0853 87.0742 53.7703H93.3056C93.3386 54.6186 93.5034 55.4355 93.7672 55.9382C93.9321 56.2838 96.3389 56.2523 97.0643 56.2523C99.57 56.2209 100.262 56.2209 100.262 54.5558C100.262 49.6231 87.0742 54.9328 87.0742 46.984C87.0742 39.9464 90.8328 38.4697 97.361 38.4697C105.538 38.4697 105.933 42.3027 105.933 45.853H100.098Z" fill="#9395A0"/>
<path d="M110.547 39.2246H116.877V46.9849H124.197V39.2246H130.461V60.8716H124.197V52.6715H116.877V60.8716H110.547V39.2246Z" fill="#9395A0"/>
<path d="M135.408 60.8716H141.837V39.2246H135.408V60.8716Z" fill="#9395A0"/>
<path d="M146.914 39.2232L157.926 39.1289C164.388 39.1289 165.872 40.8569 165.872 44.2815C165.872 47.8631 165.476 48.68 162.278 49.6539V49.7168C165.081 50.0938 166.268 51.5076 166.268 55.2149C166.268 57.9483 165.147 60.8702 159.509 60.8702H146.914V39.2232ZM153.475 55.7176H157.794C159.08 55.7176 159.74 55.0893 159.74 53.7697C159.74 52.4187 158.717 52.0417 157.662 52.0417H153.475V55.7176ZM153.475 47.5175H157.893C158.981 47.5175 159.344 46.952 159.344 45.8524C159.344 44.7527 158.915 44.2815 157.827 44.2815H153.475V47.5175Z" fill="#9395A0"/>
<path d="M174.412 39.2246H183.347L190.37 60.8716H183.677L182.325 56.8187H175.5L173.951 60.8716H167.521L174.412 39.2246ZM176.918 51.8547H180.907L178.896 45.3511L176.918 51.8547Z" fill="#9395A0"/>
</svg>
