<svg width="49" height="48" viewBox="0 0 49 48" fill="none" xmlns="http://www.w3.org/2000/svg">
<path d="M38.5 42L32.5 36M32.5 36L38.5 30M32.5 36H44.5M24.5 31H15.5C12.7089 31 11.3133 31 10.1777 31.3445C7.62091 32.1201 5.62008 34.1209 4.84448 36.6777C4.5 37.8133 4.5 39.2089 4.5 42M29.5 15C29.5 19.9706 25.4706 24 20.5 24C15.5294 24 11.5 19.9706 11.5 15C11.5 10.0294 15.5294 6 20.5 6C25.4706 6 29.5 10.0294 29.5 15Z" stroke="#9395A0" stroke-width="3" stroke-linecap="round" stroke-linejoin="round"/>
</svg>
