<svg width="36" height="36" viewBox="0 0 36 36" fill="none" xmlns="http://www.w3.org/2000/svg">
<g clip-path="url(#clip0_229_2367)">
<path fill-rule="evenodd" clip-rule="evenodd" d="M9.40558 9.40558C8 10.8093 8 13.0744 8 17.6V18.4C8 22.9256 8.00186 25.1888 9.40558 26.5944C10.8093 28 13.0744 28 17.6 28H18.4C22.9256 28 25.1888 27.9981 26.5944 26.5944C28 25.1907 28 22.9256 28 18.4V17.6C28 13.0744 27.9981 10.8112 26.5944 9.40558C25.1907 8 22.9256 8 18.4 8H17.6C13.0744 8 10.8112 8.00186 9.40558 9.40558ZM11.6172 14.2578C11.7195 19.1239 14.1511 22.0485 18.4172 22.0485H18.6581V19.2578C20.2256 19.416 21.4107 20.5601 21.886 22.0485H24.1046C23.4963 19.8336 21.8981 18.6066 20.9 18.1415C21.8981 17.5648 23.3018 16.1611 23.6367 14.2578H21.6246C21.1883 15.802 19.8935 17.2057 18.6618 17.3387V14.2578H16.6497V19.6532C15.4023 19.3425 13.8265 17.8299 13.7567 14.2578H11.6172Z" fill="white"/>
</g>
<defs>
<clipPath id="clip0_229_2367">
<rect width="20" height="20" fill="white" transform="translate(8 8)"/>
</clipPath>
</defs>
</svg>
