<svg width="20" height="20" viewBox="0 0 20 20" fill="none" xmlns="http://www.w3.org/2000/svg">
<g clip-path="url(#clip0_229_2371)">
<path fill-rule="evenodd" clip-rule="evenodd" d="M1.40558 1.40558C0 2.8093 0 5.07442 0 9.6V10.4C0 14.9256 0.00186042 17.1888 1.40558 18.5944C2.8093 20 5.07442 20 9.6 20H10.4C14.9256 20 17.1888 19.9981 18.5944 18.5944C20 17.1907 20 14.9256 20 10.4V9.6C20 5.07442 19.9981 2.81116 18.5944 1.40558C17.1907 0 14.9256 0 10.4 0H9.6C5.07442 0 2.81116 0.00186042 1.40558 1.40558ZM3.61719 6.25781C3.71951 11.1239 6.15114 14.0485 10.4172 14.0485H10.6581V11.2578C12.2256 11.416 13.4107 12.5601 13.886 14.0485H16.1046C15.4963 11.8336 13.8981 10.6066 12.9 10.1415C13.8981 9.56479 15.3018 8.16107 15.6367 6.25781H13.6246C13.1883 7.802 11.8935 9.20572 10.6618 9.33874V6.25781H8.64975V11.6532C7.4023 11.3425 5.82649 9.82991 5.75672 6.25781H3.61719Z" fill="white"/>
</g>
<defs>
<clipPath id="clip0_229_2371">
<rect width="20" height="20" fill="white"/>
</clipPath>
</defs>
</svg>
