<svg width="230" height="100" viewBox="0 0 230 100" fill="none" xmlns="http://www.w3.org/2000/svg">
<path fill-rule="evenodd" clip-rule="evenodd" d="M54.3899 30.2817L52.5041 35.406H78.6364L80.5221 30.2817H54.3899ZM51.5606 37.967L49.6749 43.0902H75.8072L77.6929 37.967H51.5606ZM48.7373 45.6523L46.8516 50.7755H72.9838L74.8684 45.6523H48.7373Z" fill="#9395A0"/>
<mask id="mask0_229_2142" style="mask-type:alpha" maskUnits="userSpaceOnUse" x="86" y="38" width="72" height="32">
<path d="M86.0586 69.4555H157.593V38.0659H86.0586V69.4555Z" fill="black"/>
</mask>
<g mask="url(#mask0_229_2142)">
<path fill-rule="evenodd" clip-rule="evenodd" d="M102.407 52.7284V52.8365C103.602 53.2713 104.742 54.0317 105.34 54.5201C107.187 56.0409 108.002 58.05 108.002 60.6567C108.002 64.9483 105.72 68.0433 101.972 69.0212C100.832 69.3467 99.6374 69.456 97.4094 69.456H86.0586V38.0657H96.107C98.1711 38.0657 99.5828 38.1738 100.832 38.4993C104.472 39.4772 106.861 41.9758 106.861 45.9394C106.861 48.0578 106.101 49.8507 104.852 51.0448C104.309 51.5878 103.548 52.24 102.407 52.7284ZM92.359 56.0409V64.296H96.7047C98.0071 64.296 99.2025 64.1879 100.072 63.3728C100.941 62.5577 101.321 61.5264 101.321 60.1684C101.321 59.1371 101.049 58.1593 100.506 57.4535C99.5828 56.3129 98.442 56.0409 96.4872 56.0409H92.359ZM92.3044 50.6099H95.8348C96.921 50.6099 97.464 50.6099 98.0071 50.4472C99.4747 50.0123 100.398 48.7101 100.398 46.9172C100.398 44.8 99.42 43.8756 98.0071 43.442C97.4094 43.2792 96.8128 43.2245 95.6174 43.2245H92.3044V50.6099ZM117.453 69.456V43.3326H108.382V38.0657H133.585L131.793 43.3326H123.753V69.456H117.453ZM135.54 69.456V38.0657H155.963L154.172 43.3326H141.787V50.2844H146.838C150.912 50.2844 153.031 51.2622 154.497 52.5109C155.638 53.4888 157.593 55.6607 157.593 59.9522C157.593 64.1879 155.583 66.5225 153.899 67.7178C151.945 69.0746 149.881 69.456 145.698 69.456H135.54ZM141.787 64.1879H146.513C148.305 64.1879 149.391 63.753 150.151 62.7752C150.532 62.2868 151.075 61.4171 151.075 59.7882C151.075 58.1593 150.532 57.0187 149.446 56.2036C148.794 55.7153 147.925 55.4444 146.458 55.4444H141.787V64.1879Z" fill="#9395A0"/>
</g>
</svg>
