<svg width="20" height="20" viewBox="0 0 20 20" fill="none" xmlns="http://www.w3.org/2000/svg">
<g clip-path="url(#clip0_229_1830)">
<path fill-rule="evenodd" clip-rule="evenodd" d="M1.34935 14.2476L0 19.1731L5.04528 17.8506C6.43864 18.6096 7.99986 19.0078 9.58656 19.0087C11.6783 19.0085 13.7115 18.3182 15.3711 17.0449C17.0306 15.7716 18.2238 13.9864 18.7655 11.966C19.3073 9.94561 19.1674 7.80295 18.3676 5.87016C17.5678 3.93737 16.1527 2.32242 14.3417 1.27567C12.5307 0.228915 10.425 -0.191171 8.35093 0.0805367C6.27691 0.352244 4.35044 1.30057 2.87019 2.77849C1.38994 4.25641 0.438602 6.18138 0.163634 8.25497C-0.111334 10.3286 0.305441 12.435 1.34935 14.2476ZM14.0498 11.549C14.2164 11.6288 14.3291 11.6828 14.3767 11.7635C14.4357 11.8618 14.4482 12.3319 14.2445 12.8859C14.0407 13.4399 13.0917 13.9475 12.636 14.0154C12.1368 14.1002 11.6246 14.0678 11.1401 13.9207C10.6799 13.7782 10.2277 13.6111 9.78541 13.4203C7.56335 12.4618 6.06117 10.3107 5.77193 9.89655C5.75107 9.86667 5.73651 9.84583 5.72846 9.83513L5.72829 9.83492C5.60795 9.67505 4.75801 8.54603 4.75801 7.37773C4.75356 7.01046 4.82509 6.64624 4.9681 6.30793C5.11111 5.96962 5.32252 5.66453 5.58905 5.41181C5.66948 5.31985 5.76829 5.24578 5.87911 5.19438C5.98993 5.14297 6.1103 5.11536 6.23245 5.11335C6.28555 5.11335 6.33764 5.11233 6.38905 5.11132C6.48989 5.10935 6.58814 5.10743 6.68639 5.11335C6.70591 5.11452 6.72617 5.11424 6.74709 5.11396C6.88515 5.11206 7.05183 5.10977 7.22256 5.52262C7.27097 5.63968 7.33639 5.7988 7.4084 5.97393C7.6288 6.50995 7.91085 7.19589 7.9553 7.2848C7.99263 7.34722 8.01396 7.41789 8.01739 7.49054C8.02082 7.56319 8.00625 7.63556 7.97497 7.70121C7.91563 7.84441 7.83554 7.9781 7.73727 8.09797C7.69212 8.14986 7.64723 8.20378 7.60239 8.25763C7.52832 8.34659 7.45442 8.43535 7.37983 8.51439C7.37661 8.5178 7.37339 8.52121 7.37017 8.52461C7.25365 8.64781 7.14051 8.76742 7.27617 8.99872C7.63256 9.60971 8.07766 10.1644 8.59691 10.6447C9.15729 11.1443 9.80009 11.5428 10.4967 11.8225C10.7326 11.9422 10.8738 11.9226 11.0114 11.7635C11.149 11.6045 11.6012 11.0701 11.7621 10.8324C11.9229 10.5947 12.0802 10.6322 12.2982 10.7127C12.5163 10.7931 13.6833 11.3686 13.921 11.4865C13.9669 11.5093 14.0099 11.5299 14.0498 11.549Z" fill="#25D366"/>
</g>
<defs>
<clipPath id="clip0_229_1830">
<rect width="20" height="20" fill="white"/>
</clipPath>
</defs>
</svg>
