<svg width="21" height="20" viewBox="0 0 21 20" fill="none" xmlns="http://www.w3.org/2000/svg">
<g id="Frame 2878" clip-path="url(#clip0_737_14178)">
<path id="Exclude" fill-rule="evenodd" clip-rule="evenodd" d="M2.1826 14.2476L0.833252 19.1731L5.87853 17.8506C7.27189 18.6096 8.83311 19.0078 10.4198 19.0087C12.5116 19.0085 14.5448 18.3182 16.2043 17.0449C17.8639 15.7716 19.057 13.9864 19.5988 11.966C20.1405 9.94561 20.0007 7.80295 19.2008 5.87016C18.401 3.93737 16.9859 2.32242 15.1749 1.27567C13.3639 0.228915 11.2582 -0.191171 9.18418 0.0805367C7.11016 0.352244 5.18369 1.30057 3.70344 2.77849C2.2232 4.25641 1.27185 6.18138 0.996886 8.25497C0.721918 10.3286 1.13869 12.435 2.1826 14.2476ZM14.883 11.549C15.0497 11.6288 15.1624 11.6828 15.21 11.7635C15.269 11.8618 15.2815 12.3319 15.0777 12.8859C14.874 13.4399 13.925 13.9475 13.4692 14.0154C12.97 14.1002 12.4579 14.0678 11.9734 13.9207C11.5132 13.7782 11.061 13.6111 10.6187 13.4203C8.3966 12.4618 6.89442 10.3107 6.60518 9.89655C6.58432 9.86667 6.56977 9.84583 6.56171 9.83513L6.56155 9.83492C6.4412 9.67505 5.59126 8.54603 5.59126 7.37773C5.58681 7.01046 5.65834 6.64624 5.80135 6.30793C5.94436 5.96962 6.15577 5.66453 6.4223 5.41181C6.50273 5.31985 6.60154 5.24578 6.71236 5.19438C6.82318 5.14297 6.94355 5.11536 7.0657 5.11335C7.11881 5.11335 7.17089 5.11233 7.2223 5.11132C7.32315 5.10935 7.4214 5.10743 7.51965 5.11335C7.53916 5.11452 7.55942 5.11424 7.58034 5.11396C7.7184 5.11206 7.88508 5.10977 8.05581 5.52262C8.10422 5.63968 8.16965 5.7988 8.24165 5.97393C8.46205 6.50995 8.7441 7.19589 8.78856 7.2848C8.82588 7.34722 8.84722 7.41789 8.85065 7.49054C8.85408 7.56319 8.8395 7.63556 8.80822 7.70121C8.74888 7.84441 8.66879 7.9781 8.57052 8.09797C8.52537 8.14986 8.48048 8.20378 8.43564 8.25763C8.36157 8.34659 8.28767 8.43535 8.21308 8.51439C8.20986 8.5178 8.20664 8.52121 8.20342 8.52461C8.0869 8.64781 7.97377 8.76742 8.10942 8.99872C8.46581 9.60971 8.91091 10.1644 9.43017 10.6447C9.99054 11.1443 10.6333 11.5428 11.33 11.8225C11.5659 11.9422 11.7071 11.9226 11.8447 11.7635C11.9823 11.6045 12.4345 11.0701 12.5953 10.8324C12.7562 10.5947 12.9134 10.6322 13.1315 10.7127C13.3495 10.7931 14.5165 11.3686 14.7542 11.4865C14.8002 11.5093 14.8431 11.5299 14.883 11.549Z" fill="#9395A0"/>
</g>
<defs>
<clipPath id="clip0_737_14178">
<rect width="20" height="20" fill="white" transform="translate(0.333252)"/>
</clipPath>
</defs>
</svg>
