<svg width="20" height="20" viewBox="0 0 20 20" fill="none" xmlns="http://www.w3.org/2000/svg">
<g clip-path="url(#clip0_229_2362)">
<path fill-rule="evenodd" clip-rule="evenodd" d="M1.84935 14.2476L0.5 19.1731L5.54528 17.8506C6.93864 18.6096 8.49986 19.0078 10.0866 19.0087C12.1783 19.0085 14.2115 18.3182 15.8711 17.0449C17.5306 15.7716 18.7238 13.9864 19.2655 11.966C19.8073 9.94561 19.6674 7.80295 18.8676 5.87016C18.0678 3.93737 16.6527 2.32242 14.8417 1.27567C13.0307 0.228915 10.925 -0.191171 8.85093 0.0805367C6.77691 0.352244 4.85044 1.30057 3.37019 2.77849C1.88994 4.25641 0.938602 6.18138 0.663634 8.25497C0.388666 10.3286 0.805441 12.435 1.84935 14.2476ZM14.5498 11.549C14.7164 11.6288 14.8291 11.6828 14.8767 11.7635C14.9357 11.8618 14.9482 12.3319 14.7445 12.8859C14.5407 13.4399 13.5917 13.9475 13.136 14.0154C12.6368 14.1002 12.1246 14.0678 11.6401 13.9207C11.1799 13.7782 10.7277 13.6111 10.2854 13.4203C8.06335 12.4618 6.56117 10.3107 6.27193 9.89655C6.25107 9.86667 6.23651 9.84583 6.22846 9.83513L6.22829 9.83492C6.10795 9.67505 5.25801 8.54603 5.25801 7.37773C5.25356 7.01046 5.32509 6.64624 5.4681 6.30793C5.61111 5.96962 5.82252 5.66453 6.08905 5.41181C6.16948 5.31985 6.26829 5.24578 6.37911 5.19438C6.48993 5.14297 6.6103 5.11536 6.73245 5.11335C6.78555 5.11335 6.83764 5.11233 6.88905 5.11132C6.98989 5.10935 7.08814 5.10743 7.18639 5.11335C7.20591 5.11452 7.22617 5.11424 7.24709 5.11396C7.38515 5.11206 7.55183 5.10977 7.72256 5.52262C7.77097 5.63968 7.83639 5.7988 7.9084 5.97393C8.1288 6.50995 8.41085 7.19589 8.4553 7.2848C8.49263 7.34722 8.51396 7.41789 8.51739 7.49054C8.52082 7.56319 8.50625 7.63556 8.47497 7.70121C8.41563 7.84441 8.33554 7.9781 8.23727 8.09797C8.19212 8.14986 8.14723 8.20378 8.10239 8.25763C8.02832 8.34659 7.95442 8.43535 7.87983 8.51439C7.87661 8.5178 7.87339 8.52121 7.87017 8.52461C7.75365 8.64781 7.64051 8.76742 7.77617 8.99872C8.13256 9.60971 8.57766 10.1644 9.09691 10.6447C9.65729 11.1443 10.3001 11.5428 10.9967 11.8225C11.2326 11.9422 11.3738 11.9226 11.5114 11.7635C11.649 11.6045 12.1012 11.0701 12.2621 10.8324C12.4229 10.5947 12.5802 10.6322 12.7982 10.7127C13.0163 10.7931 14.1833 11.3686 14.421 11.4865C14.4669 11.5093 14.5099 11.5299 14.5498 11.549Z" fill="white"/>
</g>
<defs>
<clipPath id="clip0_229_2362">
<rect width="20" height="20" fill="white"/>
</clipPath>
</defs>
</svg>
