<svg width="36" height="36" viewBox="0 0 36 36" fill="none" xmlns="http://www.w3.org/2000/svg">
<g clip-path="url(#clip0_229_2359)">
<path fill-rule="evenodd" clip-rule="evenodd" d="M9.84935 22.2476L8.5 27.1731L13.5453 25.8506C14.9386 26.6096 16.4999 27.0078 18.0866 27.0087C20.1783 27.0085 22.2115 26.3182 23.8711 25.0449C25.5306 23.7716 26.7238 21.9864 27.2655 19.966C27.8073 17.9456 27.6674 15.803 26.8676 13.8702C26.0678 11.9374 24.6527 10.3224 22.8417 9.27567C21.0307 8.22891 18.925 7.80883 16.8509 8.08054C14.7769 8.35224 12.8504 9.30057 11.3702 10.7785C9.88994 12.2564 8.9386 14.1814 8.66363 16.255C8.38867 18.3286 8.80544 20.435 9.84935 22.2476ZM22.5498 19.549C22.7164 19.6288 22.8291 19.6828 22.8767 19.7635C22.9357 19.8618 22.9482 20.3319 22.7445 20.8859C22.5407 21.4399 21.5917 21.9475 21.136 22.0154C20.6368 22.1002 20.1246 22.0678 19.6401 21.9207C19.1799 21.7782 18.7277 21.6111 18.2854 21.4203C16.0633 20.4618 14.5612 18.3107 14.2719 17.8965C14.2511 17.8667 14.2365 17.8458 14.2285 17.8351L14.2283 17.8349C14.1079 17.6751 13.258 16.546 13.258 15.3777C13.2536 15.0105 13.3251 14.6462 13.4681 14.3079C13.6111 13.9696 13.8225 13.6645 14.0891 13.4118C14.1695 13.3199 14.2683 13.2458 14.3791 13.1944C14.4899 13.143 14.6103 13.1154 14.7324 13.1133C14.7856 13.1133 14.8376 13.1123 14.889 13.1113C14.9899 13.1093 15.0881 13.1074 15.1864 13.1133C15.2059 13.1145 15.2262 13.1142 15.2471 13.114C15.3851 13.1121 15.5518 13.1098 15.7226 13.5226C15.771 13.6397 15.8364 13.7988 15.9084 13.9739C16.1288 14.5099 16.4109 15.1959 16.4553 15.2848C16.4926 15.3472 16.514 15.4179 16.5174 15.4905C16.5208 15.5632 16.5063 15.6356 16.475 15.7012C16.4156 15.8444 16.3355 15.9781 16.2373 16.098C16.1921 16.1499 16.1472 16.2038 16.1024 16.2576C16.0283 16.3466 15.9544 16.4353 15.8798 16.5144C15.8766 16.5178 15.8734 16.5212 15.8702 16.5246C15.7536 16.6478 15.6405 16.7674 15.7762 16.9987C16.1326 17.6097 16.5777 18.1644 17.0969 18.6447C17.6573 19.1443 18.3001 19.5428 18.9967 19.8225C19.2326 19.9422 19.3738 19.9226 19.5114 19.7635C19.649 19.6045 20.1012 19.0701 20.2621 18.8324C20.4229 18.5947 20.5802 18.6322 20.7982 18.7127C21.0163 18.7931 22.1833 19.3686 22.421 19.4865C22.4669 19.5093 22.5099 19.5299 22.5498 19.549Z" fill="white"/>
</g>
<defs>
<clipPath id="clip0_229_2359">
<rect width="20" height="20" fill="white" transform="translate(8 8)"/>
</clipPath>
</defs>
</svg>
